<svg width="40" height="40" viewBox="0 0 40 40" fill="none" xmlns="http://www.w3.org/2000/svg">
<g clip-path="url(#clip0_238_1260)">
<path d="M40.02 19.9901C40.02 8.93886 31.0612 -0.0199356 20.01 -0.0199356C8.9588 -0.0199356 0 8.93886 0 19.9901C0 29.3744 6.46043 37.2485 15.1761 39.4108V26.1048H11.0498V19.9901H15.1761V17.3552C15.1761 10.5445 18.2582 7.38769 24.9448 7.38769C26.2125 7.38769 28.3999 7.63621 29.2947 7.88482V13.4279C28.8224 13.3782 28.0022 13.3533 26.983 13.3533C23.7019 13.3533 22.4342 14.5962 22.4342 17.8275V19.9901H28.9702L27.8474 26.1048H22.4342V39.8535C32.342 38.6568 40.02 30.2206 40.02 19.9901Z" fill="#0866FF"/>
<path d="M27.8334 26.1117L28.9557 20H22.423V17.8385C22.423 14.6087 23.6901 13.3666 26.9695 13.3666C27.9881 13.3666 28.808 13.3914 29.2801 13.441V7.9008C28.3857 7.65232 26.1994 7.40384 24.9323 7.40384C18.2492 7.40384 15.1685 10.5591 15.1685 17.3665V20H11.0443V26.1117H15.1685V39.411C16.7159 39.7949 18.3339 40 20 40C20.8203 40 21.6286 39.9494 22.423 39.8535V26.1117H27.8334Z" fill="white"/>
</g>
<defs>
<clipPath id="clip0_238_1260">
<rect width="40" height="40" fill="white"/>
</clipPath>
</defs>
</svg>
