<svg width="40" height="40" viewBox="0 0 40 40" fill="none" xmlns="http://www.w3.org/2000/svg">
<g clip-path="url(#clip0_238_1253)">
<path d="M20.0065 0C11.6567 0 9.21471 0.00861719 8.74003 0.0479999C7.02651 0.190473 5.96026 0.460347 4.79861 1.03884C3.90341 1.48351 3.19738 1.99893 2.50058 2.72146C1.2316 4.03911 0.462512 5.66016 0.184097 7.5871C0.0487445 8.52256 0.00936147 8.71334 0.00136399 13.4916C-0.00170499 15.0844 0.00136399 17.1805 0.00136399 19.9921C0.00136399 28.3375 0.010586 30.7777 0.0505885 31.2516C0.189025 32.9194 0.450508 33.9687 1.00425 35.1165C2.06252 37.3136 4.08366 38.963 6.46477 39.5784C7.28923 39.7907 8.19983 39.9077 9.36884 39.9631C9.86413 39.9846 14.9124 40 19.9638 40C25.0151 40 30.0665 39.9938 30.5495 39.9692C31.9031 39.9055 32.6891 39.8 33.5581 39.5753C35.9546 38.9568 37.9389 37.3321 39.0186 35.1042C39.5616 33.9841 39.837 32.8948 39.9616 31.314C39.9886 30.9694 40 25.4745 40 19.9869C40 14.4985 39.9877 9.01368 39.9606 8.66903C39.8345 7.06274 39.5592 5.98266 38.9987 4.84102C38.5387 3.90647 38.0281 3.20856 37.2867 2.49499C35.9635 1.23087 34.3454 0.461571 32.4171 0.183398C31.4828 0.0483024 31.2967 0.00829984 26.5161 0H20.0065Z" fill="url(#paint0_radial_238_1253)"/>
<path d="M20.0065 0C11.6567 0 9.21471 0.00861719 8.74003 0.0479999C7.02651 0.190473 5.96026 0.460347 4.79861 1.03884C3.90341 1.48351 3.19738 1.99893 2.50058 2.72146C1.2316 4.03911 0.462512 5.66016 0.184097 7.5871C0.0487445 8.52256 0.00936147 8.71334 0.00136399 13.4916C-0.00170499 15.0844 0.00136399 17.1805 0.00136399 19.9921C0.00136399 28.3375 0.010586 30.7777 0.0505885 31.2516C0.189025 32.9194 0.450508 33.9687 1.00425 35.1165C2.06252 37.3136 4.08366 38.963 6.46477 39.5784C7.28923 39.7907 8.19983 39.9077 9.36884 39.9631C9.86413 39.9846 14.9124 40 19.9638 40C25.0151 40 30.0665 39.9938 30.5495 39.9692C31.9031 39.9055 32.6891 39.8 33.5581 39.5753C35.9546 38.9568 37.9389 37.3321 39.0186 35.1042C39.5616 33.9841 39.837 32.8948 39.9616 31.314C39.9886 30.9694 40 25.4745 40 19.9869C40 14.4985 39.9877 9.01368 39.9606 8.66903C39.8345 7.06274 39.5592 5.98266 38.9987 4.84102C38.5387 3.90647 38.0281 3.20856 37.2867 2.49499C35.9635 1.23087 34.3454 0.461571 32.4171 0.183398C31.4828 0.0483024 31.2967 0.00829984 26.5161 0H20.0065Z" fill="url(#paint1_radial_238_1253)"/>
<path d="M20.0065 0C11.6567 0 9.21471 0.00861719 8.74003 0.0479999C7.02651 0.190473 5.96026 0.460347 4.79861 1.03884C3.90341 1.48351 3.19738 1.99893 2.50058 2.72146C1.2316 4.03911 0.462512 5.66016 0.184097 7.5871C0.0487445 8.52256 0.00936147 8.71334 0.00136399 13.4916C-0.00170499 15.0844 0.00136399 17.1805 0.00136399 19.9921C0.00136399 28.3375 0.010586 30.7777 0.0505885 31.2516C0.189025 32.9194 0.450508 33.9687 1.00425 35.1165C2.06252 37.3136 4.08366 38.963 6.46477 39.5784C7.28923 39.7907 8.19983 39.9077 9.36884 39.9631C9.86413 39.9846 14.9124 40 19.9638 40C25.0151 40 30.0665 39.9938 30.5495 39.9692C31.9031 39.9055 32.6891 39.8 33.5581 39.5753C35.9546 38.9568 37.9389 37.3321 39.0186 35.1042C39.5616 33.9841 39.837 32.8948 39.9616 31.314C39.9886 30.9694 40 25.4745 40 19.9869C40 14.4985 39.9877 9.01368 39.9606 8.66903C39.8345 7.06274 39.5592 5.98266 38.9987 4.84102C38.5387 3.90647 38.0281 3.20856 37.2867 2.49499C35.9635 1.23087 34.3454 0.461571 32.4171 0.183398C31.4828 0.0483024 31.2967 0.00829984 26.5161 0H20.0065Z" fill="url(#paint2_radial_238_1253)"/>
<path d="M20.0065 0C11.6567 0 9.21471 0.00861719 8.74003 0.0479999C7.02651 0.190473 5.96026 0.460347 4.79861 1.03884C3.90341 1.48351 3.19738 1.99893 2.50058 2.72146C1.2316 4.03911 0.462512 5.66016 0.184097 7.5871C0.0487445 8.52256 0.00936147 8.71334 0.00136399 13.4916C-0.00170499 15.0844 0.00136399 17.1805 0.00136399 19.9921C0.00136399 28.3375 0.010586 30.7777 0.0505885 31.2516C0.189025 32.9194 0.450508 33.9687 1.00425 35.1165C2.06252 37.3136 4.08366 38.963 6.46477 39.5784C7.28923 39.7907 8.19983 39.9077 9.36884 39.9631C9.86413 39.9846 14.9124 40 19.9638 40C25.0151 40 30.0665 39.9938 30.5495 39.9692C31.9031 39.9055 32.6891 39.8 33.5581 39.5753C35.9546 38.9568 37.9389 37.3321 39.0186 35.1042C39.5616 33.9841 39.837 32.8948 39.9616 31.314C39.9886 30.9694 40 25.4745 40 19.9869C40 14.4985 39.9877 9.01368 39.9606 8.66903C39.8345 7.06274 39.5592 5.98266 38.9987 4.84102C38.5387 3.90647 38.0281 3.20856 37.2867 2.49499C35.9635 1.23087 34.3454 0.461571 32.4171 0.183398C31.4828 0.0483024 31.2967 0.00829984 26.5161 0H20.0065Z" fill="url(#paint3_radial_238_1253)"/>
<path d="M20.0081 5.13599C15.969 5.13599 15.4621 5.15363 13.8757 5.22577C12.2924 5.29822 11.2117 5.5487 10.2661 5.91622C9.28792 6.29579 8.45816 6.80354 7.63152 7.62989C6.80426 8.45594 6.29611 9.28506 5.91501 10.2622C5.54629 11.2074 5.29532 12.2877 5.22407 13.8691C5.15312 15.4543 5.13452 15.9612 5.13452 19.9972C5.13452 24.0333 5.1525 24.5383 5.22437 26.1235C5.29719 27.7056 5.54785 28.7855 5.91531 29.7304C6.29549 30.7079 6.80362 31.537 7.63058 32.363C8.45694 33.1897 9.28668 33.6987 10.2642 34.0783C11.2105 34.4458 12.2915 34.6963 13.8745 34.7687C15.4609 34.8408 15.9674 34.8585 20.0062 34.8585C24.0456 34.8585 24.5509 34.8409 26.1373 34.7687C27.7206 34.6963 28.8025 34.4458 29.7488 34.0783C30.7266 33.6987 31.5552 33.1897 32.3815 32.363C33.2088 31.537 33.7169 30.7079 34.098 29.7308C34.4636 28.7855 34.7146 27.7053 34.789 26.1238C34.8602 24.5386 34.8788 24.0333 34.8788 19.9972C34.8788 15.9612 34.8602 15.4547 34.789 13.8694C34.7146 12.2873 34.4636 11.2074 34.098 10.2625C33.7169 9.28506 33.2088 8.45592 32.3815 7.62989C31.5542 6.80323 30.7269 6.29547 29.7479 5.9162C28.7997 5.5487 27.7184 5.29822 26.1351 5.22577C24.5487 5.15363 24.0437 5.13599 20.0034 5.13599H20.0081ZM18.6739 7.81411C19.0699 7.81349 19.5117 7.81411 20.0081 7.81411C23.979 7.81411 24.4496 7.82836 26.0177 7.89956C27.4678 7.96582 28.2547 8.20793 28.779 8.41134C29.473 8.6807 29.9678 9.0027 30.4881 9.52284C31.0086 10.043 31.3308 10.5384 31.601 11.2319C31.8046 11.7551 32.0472 12.5415 32.1132 13.9905C32.1844 15.5571 32.1999 16.0277 32.1999 19.9938C32.1999 23.9599 32.1844 24.4306 32.1132 25.9972C32.0469 27.4461 31.8046 28.2325 31.601 28.7558C31.3315 29.4493 31.0086 29.9431 30.4881 30.463C29.9675 30.9831 29.4733 31.3051 28.779 31.5745C28.2554 31.7788 27.4678 32.0203 26.0177 32.0866C24.4499 32.1578 23.979 32.1732 20.0081 32.1732C16.0368 32.1732 15.5662 32.1578 13.9984 32.0866C12.5484 32.0197 11.7614 31.7776 11.2368 31.5742C10.5428 31.3048 10.047 30.9828 9.5265 30.4627C9.00597 29.9425 8.68374 29.4484 8.41355 28.7545C8.20998 28.2313 7.96738 27.4449 7.90139 25.9959C7.83013 24.4293 7.81587 23.9587 7.81587 19.9901C7.81587 16.0216 7.83013 15.5534 7.90139 13.9868C7.9677 12.5378 8.20998 11.7514 8.41355 11.2276C8.6831 10.534 9.00597 10.0387 9.5265 9.51852C10.047 8.99836 10.5428 8.67638 11.2368 8.4064C11.7611 8.20205 12.5484 7.96056 13.9984 7.89398C15.3704 7.83206 15.9021 7.81349 18.6739 7.81038L18.6739 7.81411ZM27.9468 10.2817C26.9615 10.2817 26.1621 11.0796 26.1621 12.0644C26.1621 13.049 26.9615 13.8478 27.9468 13.8478C28.932 13.8478 29.7314 13.049 29.7314 12.0644C29.7314 11.0799 28.932 10.2811 27.9468 10.2811L27.9468 10.2817ZM20.0081 12.3654C15.7902 12.3654 12.3705 15.7825 12.3705 19.9972C12.3705 24.212 15.7902 27.6276 20.0081 27.6276C24.2259 27.6276 27.6444 24.212 27.6444 19.9972C27.6444 15.7825 24.2256 12.3654 20.0078 12.3654H20.0081ZM20.0081 15.0435C22.7458 15.0435 24.9655 17.2612 24.9655 19.9972C24.9655 22.733 22.7458 24.951 20.0081 24.951C17.27 24.951 15.0506 22.733 15.0506 19.9972C15.0506 17.2612 17.27 15.0435 20.0081 15.0435Z" fill="white"/>
</g>
<defs>
<radialGradient id="paint0_radial_238_1253" cx="0" cy="0" r="1" gradientUnits="userSpaceOnUse" gradientTransform="translate(38.7084 18.7485) rotate(164.25) scale(25.5577 18.4131)">
<stop stop-color="#FF005F"/>
<stop offset="1" stop-color="#FC01D8"/>
</radialGradient>
<radialGradient id="paint1_radial_238_1253" cx="0" cy="0" r="1" gradientUnits="userSpaceOnUse" gradientTransform="translate(10.6247 43.0808) rotate(-90) scale(31.9288 33.8757)">
<stop stop-color="#FFCC00"/>
<stop offset="0.1242" stop-color="#FFCC00"/>
<stop offset="0.5672" stop-color="#FE4A05"/>
<stop offset="0.6942" stop-color="#FF0F3F"/>
<stop offset="1" stop-color="#FE0657" stop-opacity="0"/>
</radialGradient>
<radialGradient id="paint2_radial_238_1253" cx="0" cy="0" r="1" gradientUnits="userSpaceOnUse" gradientTransform="translate(21.0108 39.4359) rotate(-59.8703) scale(13.2028 17.1886)">
<stop stop-color="#FFCC00"/>
<stop offset="1" stop-color="#FFCC00" stop-opacity="0"/>
</radialGradient>
<radialGradient id="paint3_radial_238_1253" cx="0" cy="0" r="1" gradientUnits="userSpaceOnUse" gradientTransform="translate(5.42714 1.62879) rotate(164.274) scale(25.2742 8.61091)">
<stop stop-color="#780CFF"/>
<stop offset="1" stop-color="#820BFF" stop-opacity="0"/>
</radialGradient>
<clipPath id="clip0_238_1253">
<rect width="40" height="40" fill="white"/>
</clipPath>
</defs>
</svg>
