<?xml version="1.0" encoding="UTF-8"?>
<!DOCTYPE svg PUBLIC "-//W3C//DTD SVG 1.1//EN" "http://www.w3.org/Graphics/SVG/1.1/DTD/svg11.dtd">
<!-- Creator: CorelDRAW X8 -->
<svg xmlns="http://www.w3.org/2000/svg" xml:space="preserve" width="162.56mm" height="460.832mm" version="1.1" style="shape-rendering:geometricPrecision; text-rendering:geometricPrecision; image-rendering:optimizeQuality; fill-rule:evenodd; clip-rule:evenodd"
viewBox="0 0 33434 94779"
 xmlns:xlink="http://www.w3.org/1999/xlink">
 <defs>
  <style type="text/css">
   <![CDATA[
    .fil0 {fill:#0B3351;fill-opacity:0.031373}
   ]]>
  </style>
 </defs>
 <g id="Layer_x0020_1">
  <metadata id="CorelCorpID_0Corel-Layer"/>
  <g id="_2201679130768">
   <path class="fil0" d="M0 25255l0 862c200,392 200,877 0,1258l0 858c836,-637 887,-1913 236,-2750 -73,-84 -152,-160 -236,-228z"/>
   <path class="fil0" d="M0 30311l0 690 4374 0c394,0 689,-99 985,-395 98,-295 295,-689 295,-985l0 -197 -197 0c-98,0 -197,-98 -295,-98l-197 0 0 197c-99,295 -197,788 -493,788l-4472 0z"/>
   <path class="fil0" d="M0 22875l0 708c801,-88 1602,-169 2404,-169 886,0 1773,99 2659,197 197,99 591,197 788,197 99,-98 197,-98 197,-197l99 -98 0 -99c-99,-197 -197,-295 -394,-295 -197,-99 -296,-99 -493,-99 -985,-197 -2068,-295 -3152,-295 -703,0 -1405,50 -2108,150z"/>
   <path class="fil0" d="M0 29240l0 570c13,5 26,8 39,8 985,99 2759,0 4236,99 197,0 296,-591 0,-591 -752,0 -3745,0 -4275,-86z"/>
   <path class="fil0" d="M3389 26863c295,98 394,394 394,689 0,197 -99,493 -296,591 -197,198 -1674,198 -1970,198 -197,0 -493,0 -690,-198 -197,-197 -197,-492 -197,-689 0,-296 197,-493 394,-591l2365 0zm-2168 886l1971 0c0,-98 0,-197 0,-295 -197,0 -591,0 -788,0 -394,0 -788,0 -1183,0 0,98 0,98 0,197 0,0 0,0 0,98z"/>
   <path class="fil0" d="M1714 26271l1576 0 -98 0 -1478 0zm1478 -788c-296,0 -591,0 -887,0 -295,0 -492,0 -788,0l-197 0c-99,99 -99,99 -99,99 0,98 0,98 0,98l1971 0c0,-98 0,-98 0,-197zm-1478 788l1478 0 98 0c690,0 690,-1379 0,-1379l-2167 0c-296,0 -394,394 -394,591 0,296 0,788 295,788l690 0z"/>
   <path class="fil0" d="M3783 26469l0 591c0,492 295,985 788,1182 1182,690 2561,-197 2561,-1478 0,-493 -99,-887 -493,-1379 -1182,-1084 -2659,-197 -2856,1084zm492 0l0 492c99,296 296,591 591,788 788,493 1675,-197 1675,-985 0,-394 0,-690 -296,-887 -788,-788 -1871,-197 -1970,592z"/>
   <path class="fil0" d="M7230 20360c0,-197 99,-296 197,-493 99,-197 197,-591 394,-591 99,-98 197,-98 296,0 295,0 591,0 886,99 197,0 394,98 394,197 99,197 -98,492 -197,689 -98,296 -197,493 -295,789 -197,295 -296,591 -788,492 -493,0 -788,-492 -493,-886 296,-296 591,-197 788,-99l296 -493 -690 -98c-98,295 -295,493 -394,690 -98,295 -197,689 -591,689 -492,99 -985,-394 -689,-886 197,-99 394,-198 591,-198 98,0 197,0 295,99z"/>
   <path class="fil0" d="M10481 19473c98,-98 98,-295 197,-394 98,-197 98,-394 197,-591 99,-296 197,-394 493,-394 394,98 689,98 1083,98 296,99 591,198 394,592l-492 1182c-99,394 -296,788 -690,690 -493,0 -887,-395 -591,-887 98,-197 296,-296 591,-197 99,0 197,0 197,0l296 -591 -788 0c-99,197 -296,492 -394,689 -99,296 -198,789 -592,887 -492,99 -1083,-296 -788,-887 99,-197 296,-295 591,-295 197,0 197,0 296,98z"/>
   <path class="fil0" d="M9299 23513c-99,-493 -197,-985 -197,-1379 -99,-198 0,-395 197,-395l1083 -492c197,-99 394,-296 591,-99 197,99 197,394 197,591 99,395 99,789 198,1183 0,394 98,788 -296,1083 -493,296 -1084,99 -1084,-492 0,-296 99,-493 394,-591 99,-99 197,-99 296,-99l-99 -788 -886 394c0,394 98,690 98,985 99,493 296,985 -197,1281 -492,296 -1083,99 -1083,-493 0,-295 98,-492 295,-591 197,-98 296,-98 493,-98z"/>
   <path class="fil0" d="M0 21650l0 683c205,-2 414,-2 630,-2l3842 0c296,0 296,0 296,-197 0,-99 -99,-3843 98,-3843 394,-99 197,2956 296,3843 0,197 98,295 295,197 394,0 1084,0 1379,295 296,296 1182,8473 -985,8867 -617,137 -3763,179 -5851,26l0 756c2482,231 6059,155 6738,-388 197,-98 295,-295 394,-394 98,-98 98,-197 197,-295 689,-1084 886,-7193 394,-8572 -197,-492 -591,-788 -1182,-887 -197,-98 -394,-98 -690,-98 0,-788 197,-4237 -1083,-4237 -1084,0 -690,3646 -690,4237 -571,0 -2494,-41 -4078,9z"/>
   <path class="fil0" d="M3290 18192c-295,0 -394,-295 -394,-492 197,-887 1084,-1478 1970,-1478 0,0 99,0 197,0 197,0 394,99 591,296 296,98 591,394 788,689 197,197 394,591 197,788 -98,99 -197,99 -295,99 -296,0 -394,-197 -493,-394 -394,-591 -985,-887 -1576,-591 -689,394 -492,788 -788,985 0,98 -98,98 -197,98z"/>
   <path class="fil0" d="M1616 17306c0,-197 492,-788 591,-985 492,-493 886,-887 1477,-1281 788,-394 1576,-394 2364,0 296,98 591,295 788,492 394,493 591,690 788,1281 197,690 -492,985 -788,197 -98,-492 -394,-788 -788,-1084 -1182,-886 -2167,-295 -3053,690 -99,99 -197,296 -296,394 -197,197 -394,690 -689,690 -296,0 -394,-197 -394,-394z"/>
   <path class="fil0" d="M1024 17109c-98,0 -98,0 -197,-99 -295,-197 0,-788 99,-985 295,-493 690,-887 985,-1281 197,-197 493,-394 690,-492 985,-592 1477,-690 2561,-690 689,0 1871,492 2462,985 296,197 591,493 788,887 99,98 197,295 296,492 197,197 394,592 197,887 -99,0 -197,99 -296,99 -394,0 -591,-789 -788,-1084 -591,-887 -1871,-1478 -2856,-1478 -1182,0 -2463,690 -3054,1576 -197,197 -295,493 -394,690 0,99 -98,296 -197,394 -99,99 -197,99 -296,99z"/>
   <path class="fil0" d="M27714 5926c-254,395 -187,2506 47,2960 287,561 1336,1169 1977,1196 815,33 1550,-561 1937,-1249 314,-555 395,-2379 161,-2913 -441,-141 -3701,-141 -4122,6zm4108 -828c201,-441 187,-2739 -26,-3200 -929,-1977 -3488,-1470 -4062,60 -154,428 -167,2753 7,3140 400,174 3681,174 4081,0zm742 3120c-301,2305 -3474,3180 -4803,1503 -862,-1089 -702,-2091 -702,-3394 0,-1069 -113,-2946 60,-3921 394,-2252 3147,-3280 4724,-1503 895,1002 728,2091 728,3340 0,1062 113,3020 -7,3975z"/>
   <path class="fil0" d="M33434 9616l0 -1749c-388,625 -542,3379 -3602,3397 -3374,27 -3294,-3220 -3788,-3393 -528,400 200,2037 521,2485 715,995 1657,1062 2078,1516 975,1069 -695,1637 -976,2145 -735,1349 1550,1015 2258,1015 715,0 2826,267 1884,-1122 -321,-461 -1911,-1156 -775,-2111 528,-448 1109,-328 2044,-1557 94,-124 228,-354 356,-626zm-2159 4761c-201,-641 -862,-467 -1443,-467 -521,0 -1390,-161 -1510,447 347,241 2545,221 2953,20zm-2058 -2344c-134,387 321,1262 454,1436l94 7 107 6c194,-234 568,-1115 461,-1463 -34,-87 -1063,-147 -1116,14z"/>
   <path class="fil0" d="M28836 7443c428,100 1430,100 1884,-20l-80 -461c-408,-154 -1450,-200 -1844,53l40 428z"/>
   <path class="fil0" d="M28923 8271c254,381 1223,274 1610,154 7,-494 -260,-374 -735,-374 -434,0 -648,-107 -875,220z"/>
   <path class="fil0" d="M26070 5532c-748,-507 -374,-2832 468,-2806 354,789 -194,602 -327,1370 -127,735 427,935 -141,1436z"/>
   <path class="fil0" d="M25042 2633c-849,394 -1049,3006 -214,3167 534,-789 -47,-702 6,-1564 54,-835 642,-935 208,-1603z"/>
   <path class="fil0" d="M23325 6628c-742,-929 -374,-5204 474,-5158 347,1450 -200,1116 -327,2519 -134,1356 421,1724 -147,2639z"/>
   <path class="fil0" d="M33434 4860l0 -1691c-88,-116 -195,-210 -322,-269 -408,361 107,481 140,1029 27,534 -494,421 -40,995 85,0 158,-24 222,-64z"/>
  </g>
  <g id="_2201675347232">
   <path class="fil0" d="M0 56699l0 862c200,393 200,877 0,1258l0 859c836,-638 887,-1914 236,-2751 -73,-84 -152,-160 -236,-228z"/>
   <path class="fil0" d="M0 61755l0 690 4374 0c394,0 689,-99 985,-394 98,-296 295,-690 295,-985l0 -198 -197 0c-98,0 -197,-98 -295,-98l-197 0 0 197c-99,296 -197,788 -493,788l-4472 0z"/>
   <path class="fil0" d="M0 54319l0 708c801,-88 1602,-168 2404,-168 886,0 1773,98 2659,197 197,98 591,197 788,197 99,-99 197,-99 197,-197l99 -99 0 -98c-99,-198 -197,-296 -394,-296 -197,-99 -296,-99 -493,-99 -985,-197 -2068,-295 -3152,-295 -703,0 -1405,50 -2108,150z"/>
   <path class="fil0" d="M0 60684l0 570c13,6 26,9 39,9 985,98 2759,0 4236,98 197,0 296,-591 0,-591 -752,0 -3745,0 -4275,-86z"/>
   <path class="fil0" d="M3389 58307c295,98 394,394 394,689 0,197 -99,493 -296,592 -197,197 -1674,197 -1970,197 -197,0 -493,0 -690,-197 -197,-197 -197,-493 -197,-690 0,-296 197,-493 394,-591l2365 0zm-2168 886l1971 0c0,-98 0,-197 0,-295 -197,0 -591,0 -788,0 -394,0 -788,0 -1183,0 0,98 0,98 0,197 0,0 0,0 0,98z"/>
   <path class="fil0" d="M1714 57716l1576 0 -98 0 -1478 0zm1478 -789c-296,0 -591,0 -887,0 -295,0 -492,0 -788,0l-197 0c-99,99 -99,99 -99,99 0,98 0,98 0,98l1971 0c0,-98 0,-98 0,-197zm-1478 789l1478 0 98 0c690,0 690,-1380 0,-1380l-2167 0c-296,0 -394,394 -394,591 0,296 0,789 295,789l690 0z"/>
   <path class="fil0" d="M3783 57913l0 591c0,492 295,985 788,1182 1182,690 2561,-197 2561,-1478 0,-492 -99,-887 -493,-1379 -1182,-1084 -2659,-197 -2856,1084zm492 0l0 492c99,296 296,591 591,788 788,493 1675,-197 1675,-985 0,-394 0,-689 -296,-887 -788,-788 -1871,-197 -1970,592z"/>
   <path class="fil0" d="M7230 51804c0,-197 99,-295 197,-492 99,-198 197,-592 394,-592 99,-98 197,-98 296,0 295,0 591,0 886,99 197,0 394,98 394,197 99,197 -98,493 -197,690 -98,295 -197,492 -295,788 -197,295 -296,591 -788,492 -493,0 -788,-492 -493,-886 296,-296 591,-197 788,-99l296 -492 -690 -99c-98,296 -295,493 -394,690 -98,295 -197,689 -591,689 -492,99 -985,-394 -689,-886 197,-99 394,-197 591,-197 98,0 197,0 295,98z"/>
   <path class="fil0" d="M10481 50917c98,-98 98,-295 197,-394 98,-197 98,-394 197,-591 99,-295 197,-394 493,-394 394,99 689,99 1083,99 296,98 591,197 394,591l-492 1182c-99,394 -296,788 -690,690 -493,0 -887,-394 -591,-887 98,-197 296,-296 591,-197 99,0 197,0 197,0l296 -591 -788 0c-99,197 -296,492 -394,689 -99,296 -198,789 -592,887 -492,99 -1083,-295 -788,-887 99,-197 296,-295 591,-295 197,0 197,0 296,98z"/>
   <path class="fil0" d="M9299 54957c-99,-493 -197,-985 -197,-1379 -99,-197 0,-395 197,-395l1083 -492c197,-99 394,-296 591,-99 197,99 197,394 197,591 99,395 99,789 198,1183 0,394 98,788 -296,1084 -493,295 -1084,98 -1084,-493 0,-296 99,-493 394,-591 99,-99 197,-99 296,-99l-99 -788 -886 394c0,394 98,690 98,986 99,492 296,985 -197,1280 -492,296 -1083,99 -1083,-492 0,-296 98,-493 295,-591 197,-99 296,-99 493,-99z"/>
   <path class="fil0" d="M0 53094l0 683c205,-2 414,-2 630,-2l3842 0c296,0 296,0 296,-197 0,-99 -99,-3843 98,-3843 394,-98 197,2956 296,3843 0,197 98,295 295,197 394,0 1084,0 1379,295 296,296 1182,8473 -985,8867 -617,138 -3763,179 -5851,26l0 756c2482,231 6059,156 6738,-388 197,-98 295,-295 394,-394 98,-98 98,-197 197,-295 689,-1084 886,-7192 394,-8572 -197,-492 -591,-788 -1182,-887 -197,-98 -394,-98 -690,-98 0,-788 197,-4237 -1083,-4237 -1084,0 -690,3646 -690,4237 -571,0 -2494,-41 -4078,9z"/>
   <path class="fil0" d="M3290 49637c-295,0 -394,-296 -394,-493 197,-887 1084,-1478 1970,-1478 0,0 99,0 197,0 197,0 394,99 591,296 296,98 591,394 788,689 197,197 394,592 197,789 -98,98 -197,98 -295,98 -296,0 -394,-197 -493,-394 -394,-591 -985,-887 -1576,-591 -689,394 -492,788 -788,985 0,99 -98,99 -197,99z"/>
   <path class="fil0" d="M1616 48750c0,-197 492,-788 591,-985 492,-493 886,-887 1477,-1281 788,-394 1576,-394 2364,0 296,98 591,295 788,492 394,493 591,690 788,1281 197,690 -492,986 -788,197 -98,-492 -394,-788 -788,-1083 -1182,-887 -2167,-296 -3053,689 -99,99 -197,296 -296,394 -197,197 -394,690 -689,690 -296,0 -394,-197 -394,-394z"/>
   <path class="fil0" d="M1024 48553c-98,0 -98,0 -197,-99 -295,-197 0,-788 99,-985 295,-493 690,-887 985,-1281 197,-197 493,-394 690,-492 985,-591 1477,-690 2561,-690 689,0 1871,493 2462,985 296,197 591,493 788,887 99,98 197,296 296,493 197,197 394,591 197,886 -99,0 -197,99 -296,99 -394,0 -591,-788 -788,-1084 -591,-887 -1871,-1478 -2856,-1478 -1182,0 -2463,690 -3054,1577 -197,197 -295,492 -394,689 0,99 -98,296 -197,394 -99,99 -197,99 -296,99z"/>
   <path class="fil0" d="M27714 37371c-254,394 -187,2505 47,2959 287,561 1336,1169 1977,1196 815,33 1550,-561 1937,-1249 314,-555 395,-2379 161,-2913 -441,-140 -3701,-140 -4122,7zm4108 -829c201,-441 187,-2739 -26,-3200 -929,-1977 -3488,-1470 -4062,60 -154,428 -167,2753 7,3140 400,174 3681,174 4081,0zm742 3120c-301,2305 -3474,3180 -4803,1503 -862,-1089 -702,-2091 -702,-3394 0,-1068 -113,-2946 60,-3921 394,-2251 3147,-3280 4724,-1503 895,1002 728,2091 728,3340 0,1062 113,3020 -7,3975z"/>
   <path class="fil0" d="M33434 41060l0 -1749c-388,625 -542,3379 -3602,3397 -3374,27 -3294,-3220 -3788,-3393 -528,400 200,2037 521,2485 715,995 1657,1062 2078,1516 975,1069 -695,1637 -976,2145 -735,1349 1550,1015 2258,1015 715,0 2826,267 1884,-1122 -321,-461 -1911,-1156 -775,-2111 528,-448 1109,-327 2044,-1557 94,-124 228,-354 356,-626zm-2159 4762c-201,-642 -862,-468 -1443,-468 -521,0 -1390,-160 -1510,448 347,240 2545,220 2953,20zm-2058 -2345c-134,387 321,1262 454,1436l94 7 107 6c194,-233 568,-1115 461,-1463 -34,-87 -1063,-147 -1116,14z"/>
   <path class="fil0" d="M28836 38887c428,100 1430,100 1884,-20l-80 -461c-408,-154 -1450,-200 -1844,54l40 427z"/>
   <path class="fil0" d="M28923 39715c254,381 1223,274 1610,154 7,-494 -260,-374 -735,-374 -434,0 -648,-107 -875,220z"/>
   <path class="fil0" d="M26070 36976c-748,-507 -374,-2832 468,-2805 354,788 -194,601 -327,1369 -127,735 427,935 -141,1436z"/>
   <path class="fil0" d="M25042 34077c-849,394 -1049,3006 -214,3167 534,-789 -47,-702 6,-1564 54,-835 642,-935 208,-1603z"/>
   <path class="fil0" d="M23325 38072c-742,-929 -374,-5204 474,-5157 347,1449 -200,1115 -327,2518 -134,1356 421,1724 -147,2639z"/>
   <path class="fil0" d="M33434 36304l0 -1691c-88,-116 -195,-210 -322,-269 -408,361 107,481 140,1029 27,535 -494,421 -40,996 85,-1 158,-25 222,-65z"/>
  </g>
  <g id="_2201682771824">
   <path class="fil0" d="M0 87636l0 862c200,393 200,877 0,1259l0 858c836,-638 887,-1913 236,-2750 -73,-84 -152,-161 -236,-229z"/>
   <path class="fil0" d="M0 92692l0 690 4374 0c394,0 689,-98 985,-394 98,-296 295,-690 295,-985l0 -197 -197 0c-98,0 -197,-99 -295,-99l-197 0 0 197c-99,296 -197,788 -493,788l-4472 0z"/>
   <path class="fil0" d="M0 85257l0 708c801,-89 1602,-169 2404,-169 886,0 1773,98 2659,197 197,98 591,197 788,197 99,-99 197,-99 197,-197l99 -99 0 -98c-99,-197 -197,-296 -394,-296 -197,-98 -296,-98 -493,-98 -985,-197 -2068,-296 -3152,-296 -703,0 -1405,50 -2108,151z"/>
   <path class="fil0" d="M0 91622l0 570c13,5 26,8 39,8 985,98 2759,0 4236,98 197,0 296,-591 0,-591 -752,0 -3745,0 -4275,-85z"/>
   <path class="fil0" d="M3389 89244c295,99 394,394 394,690 0,197 -99,492 -296,591 -197,197 -1674,197 -1970,197 -197,0 -493,0 -690,-197 -197,-197 -197,-493 -197,-690 0,-295 197,-492 394,-591l2365 0zm-2168 887l1971 0c0,-99 0,-197 0,-296 -197,0 -591,0 -788,0 -394,0 -788,0 -1183,0 0,99 0,99 0,197 0,0 0,0 0,99z"/>
   <path class="fil0" d="M1714 88653l1576 0 -98 0 -1478 0zm1478 -788c-296,0 -591,0 -887,0 -295,0 -492,0 -788,0l-197 0c-99,98 -99,98 -99,98 0,99 0,99 0,99l1971 0c0,-99 0,-99 0,-197zm-1478 788l1478 0 98 0c690,0 690,-1379 0,-1379l-2167 0c-296,0 -394,394 -394,591 0,295 0,788 295,788l690 0z"/>
   <path class="fil0" d="M3783 88850l0 591c0,493 295,985 788,1183 1182,689 2561,-198 2561,-1478 0,-493 -99,-887 -493,-1380 -1182,-1084 -2659,-197 -2856,1084zm492 0l0 493c99,295 296,591 591,788 788,493 1675,-197 1675,-985 0,-394 0,-690 -296,-887 -788,-788 -1871,-197 -1970,591z"/>
   <path class="fil0" d="M7230 82742c0,-198 99,-296 197,-493 99,-197 197,-591 394,-591 99,-99 197,-99 296,0 295,0 591,0 886,98 197,0 394,99 394,197 99,197 -98,493 -197,690 -98,296 -197,493 -295,788 -197,296 -296,591 -788,493 -493,0 -788,-493 -493,-887 296,-295 591,-197 788,-98l296 -493 -690 -99c-98,296 -295,493 -394,690 -98,296 -197,690 -591,690 -492,98 -985,-394 -689,-887 197,-98 394,-197 591,-197 98,0 197,0 295,99z"/>
   <path class="fil0" d="M10481 81855c98,-99 98,-296 197,-394 98,-197 98,-394 197,-591 99,-296 197,-395 493,-395 394,99 689,99 1083,99 296,99 591,197 394,591l-492 1182c-99,395 -296,789 -690,690 -493,0 -887,-394 -591,-887 98,-197 296,-295 591,-197 99,0 197,0 197,0l296 -591 -788 0c-99,197 -296,493 -394,690 -99,295 -198,788 -592,887 -492,98 -1083,-296 -788,-887 99,-197 296,-296 591,-296 197,0 197,0 296,99z"/>
   <path class="fil0" d="M9299 85894c-99,-492 -197,-985 -197,-1379 -99,-197 0,-394 197,-394l1083 -493c197,-98 394,-295 591,-98 197,98 197,394 197,591 99,394 99,788 198,1182 0,394 98,788 -296,1084 -493,295 -1084,98 -1084,-493 0,-295 99,-492 394,-591 99,-98 197,-98 296,-98l-99 -788 -886 394c0,394 98,689 98,985 99,492 296,985 -197,1281 -492,295 -1083,98 -1083,-493 0,-296 98,-493 295,-591 197,-99 296,-99 493,-99z"/>
   <path class="fil0" d="M0 84032l0 682c205,-2 414,-2 630,-2l3842 0c296,0 296,0 296,-197 0,-98 -99,-3842 98,-3842 394,-99 197,2955 296,3842 0,197 98,296 295,197 394,0 1084,0 1379,296 296,295 1182,8473 -985,8867 -617,137 -3763,179 -5851,25l0 756c2482,231 6059,156 6738,-387 197,-99 295,-296 394,-394 98,-99 98,-197 197,-296 689,-1084 886,-7192 394,-8571 -197,-493 -591,-789 -1182,-887 -197,-99 -394,-99 -690,-99 0,-788 197,-4236 -1083,-4236 -1084,0 -690,3645 -690,4236 -571,0 -2494,-41 -4078,10z"/>
   <path class="fil0" d="M3290 80574c-295,0 -394,-296 -394,-493 197,-886 1084,-1477 1970,-1477 0,0 99,0 197,0 197,0 394,98 591,295 296,99 591,394 788,690 197,197 394,591 197,788 -98,98 -197,98 -295,98 -296,0 -394,-197 -493,-394 -394,-591 -985,-886 -1576,-591 -689,394 -492,788 -788,985 0,99 -98,99 -197,99z"/>
   <path class="fil0" d="M1616 79687c0,-197 492,-788 591,-985 492,-493 886,-887 1477,-1281 788,-394 1576,-394 2364,0 296,99 591,296 788,493 394,492 591,690 788,1281 197,689 -492,985 -788,197 -98,-493 -394,-788 -788,-1084 -1182,-887 -2167,-296 -3053,690 -99,98 -197,295 -296,394 -197,197 -394,689 -689,689 -296,0 -394,-197 -394,-394z"/>
   <path class="fil0" d="M1024 79490c-98,0 -98,0 -197,-98 -295,-197 0,-788 99,-986 295,-492 690,-886 985,-1280 197,-197 493,-394 690,-493 985,-591 1477,-690 2561,-690 689,0 1871,493 2462,986 296,197 591,492 788,886 99,99 197,296 296,493 197,197 394,591 197,887 -99,0 -197,98 -296,98 -394,0 -591,-788 -788,-1084 -591,-886 -1871,-1477 -2856,-1477 -1182,0 -2463,689 -3054,1576 -197,197 -295,493 -394,690 0,98 -98,295 -197,394 -99,98 -197,98 -296,98z"/>
   <path class="fil0" d="M27714 68308c-254,394 -187,2505 47,2959 287,562 1336,1170 1977,1196 815,34 1550,-561 1937,-1249 314,-554 395,-2378 161,-2913 -441,-140 -3701,-140 -4122,7zm4108 -828c201,-441 187,-2739 -26,-3200 -929,-1978 -3488,-1470 -4062,60 -154,427 -167,2752 7,3140 400,173 3681,173 4081,0zm742 3119c-301,2305 -3474,3180 -4803,1504 -862,-1089 -702,-2091 -702,-3394 0,-1069 -113,-2946 60,-3922 394,-2251 3147,-3280 4724,-1503 895,1002 728,2091 728,3340 0,1063 113,3020 -7,3975z"/>
   <path class="fil0" d="M33434 71997l0 -1748c-388,624 -542,3378 -3602,3397 -3374,27 -3294,-3220 -3788,-3394 -528,401 200,2038 521,2485 715,996 1657,1062 2078,1517 975,1069 -695,1636 -976,2144 -735,1350 1550,1016 2258,1016 715,0 2826,267 1884,-1123 -321,-461 -1911,-1155 -775,-2111 528,-447 1109,-327 2044,-1556 94,-125 228,-355 356,-627zm-2159 4762c-201,-641 -862,-468 -1443,-468 -521,0 -1390,-160 -1510,448 347,240 2545,220 2953,20zm-2058 -2345c-134,388 321,1263 454,1436l94 7 107 7c194,-234 568,-1116 461,-1463 -34,-87 -1063,-147 -1116,13z"/>
   <path class="fil0" d="M28836 69824c428,101 1430,101 1884,-20l-80 -461c-408,-153 -1450,-200 -1844,54l40 427z"/>
   <path class="fil0" d="M28923 70653c254,381 1223,274 1610,154 7,-495 -260,-375 -735,-375 -434,0 -648,-106 -875,221z"/>
   <path class="fil0" d="M26070 67914c-748,-508 -374,-2833 468,-2806 354,788 -194,601 -327,1369 -127,735 427,936 -141,1437z"/>
   <path class="fil0" d="M25042 65014c-849,395 -1049,3007 -214,3167 534,-788 -47,-701 6,-1563 54,-835 642,-936 208,-1604z"/>
   <path class="fil0" d="M23325 69009c-742,-928 -374,-5204 474,-5157 347,1450 -200,1116 -327,2519 -134,1356 421,1723 -147,2638z"/>
   <path class="fil0" d="M33434 67241l0 -1690c-88,-117 -195,-211 -322,-269 -408,360 107,481 140,1028 27,535 -494,421 -40,996 85,-1 158,-24 222,-65z"/>
  </g>
 </g>
</svg>
