<?xml version="1.0" encoding="UTF-8" standalone="no"?>
<!-- Created with Inkscape (http://www.inkscape.org/) -->

<svg
   version="1.1"
   id="svg1"
   width="621.77521"
   height="622.28259"
   viewBox="0 0 621.77521 622.28259"
   sodipodi:docname="play-pause-and-stop-button-set-vector-35899950.png"
   xmlns:inkscape="http://www.inkscape.org/namespaces/inkscape"
   xmlns:sodipodi="http://sodipodi.sourceforge.net/DTD/sodipodi-0.dtd"
   xmlns="http://www.w3.org/2000/svg"
   xmlns:svg="http://www.w3.org/2000/svg">
  <defs
     id="defs1" />
  <sodipodi:namedview
     id="namedview1"
     pagecolor="#505050"
     bordercolor="#eeeeee"
     borderopacity="1"
     inkscape:showpageshadow="0"
     inkscape:pageopacity="0"
     inkscape:pagecheckerboard="0"
     inkscape:deskcolor="#505050"
     showgrid="false" />
  <g
     inkscape:groupmode="layer"
     inkscape:label="Image"
     id="g1"
     transform="translate(-752.48175,-64.721977)">
    <path
       style="fill:#f7bf00;fill-opacity:1"
       d="m 1027.9817,685.43811 -11.5,-1.35443 -9,-1.63231 -8.99996,-1.63231 -13,-3.34199 -13,-3.342 -13.5,-4.68536 -13.50001,-4.68537 -16,-7.69735 -16,-7.69734 -12,-7.29508 -11.99998,-7.29508 -13,-9.77379 -13,-9.7738 -9,-8.20195 -9,-8.20195 -6.79788,-7.16049 -6.79787,-7.16049 -7.70213,-9.11991 -7.70212,-9.11991 -5.66885,-7.88009 -5.66885,-7.88009 -6.5997,-10.5 -6.5997,-10.5 -5.87233,-11.5 -5.87232,-11.5 -4.24234,-10 -4.24234,-10 -4.36464,-13.24913 -4.36463,-13.24913 -2.40832,-10.25087 -2.40833,-10.25087 -1.51668,-8.5 -1.51669,-8.5 -1.32714,-9 -1.32714,-9 0.0647,-29 0.0647,-29 2.10302,-13.51255 2.10302,-13.51256 2.68295,-11.98744 2.68296,-11.98745 3.80615,-12 3.80615,-12 4.01037,-10 4.01037,-10 3.66929,-8 3.6693,-8 5.59072,-10 5.59073,-10 7.28828,-11.02223 7.28829,-11.02222 8.78454,-10.97503 8.78454,-10.97502 10.43759,-10.81162 10.43759,-10.81163 9.56241,-8.26361 9.56241,-8.26362 8.17532,-6.16561 8.17533,-6.1656 10.82465,-7.0787 10.8247,-7.07871 19,-9.38144 19,-9.38144 12.7359,-4.55247 12.73601,-4.552467 10.764,-2.90672 10.7641,-2.906723 9.99996,-2.049099 10,-2.049099 12,-1.596118 12,-1.596118 18,-0.589873 18,-0.589874 15,1.208187 15,1.208187 11.5,1.922718 11.5,1.922719 9,2.110967 9,2.110968 11.5,3.498558 11.5,3.49855 12.3556,4.922797 12.3556,4.92281 12.6444,6.35919 12.6444,6.35919 8.5,5.22432 8.5,5.22431 9.3779,6.53383 9.3779,6.53383 9.1221,7.5357 9.1221,7.5357 9.8532,9.57625 9.8531,9.57626 8.9241,10.29788 8.924,10.29787 6.7544,9.20213 6.7544,9.20212 5.0523,8 5.0523,8 5.031,9 5.0311,9 3.7543,8 3.7543,8 4.514,11.5 4.514,11.5 3.7617,12.5 3.7617,12.5 2.0461,9.5 2.0462,9.5 1.5099,9.5 1.5099,9.5 1.1866,13.5 1.1866,13.5 -0.6071,21 -0.6071,21 -1.5007,10.5 -1.5007,10.5 -1.4756,7.5 -1.4756,7.5 -1.5898,6.8095 -1.5899,6.8095 -3.533,11.65582 -3.5331,11.65583 -4.9883,12.48125 -4.9884,12.48126 -5.1373,10.05342 -5.1373,10.05342 -4.9708,8.5 -4.9708,8.5 -6.0103,9 -6.0103,9 -7.1564,9 -7.1565,9 -8.6007,9.31739 -8.6007,9.31739 -9.1811,8.4613 -9.1811,8.4613 -7.1363,5.7676 -7.1363,5.76761 -7,5.01165 -7,5.01165 -9.9502,6.21978 -9.9501,6.21979 -12.6695,6.44231 -12.6694,6.44231 -8.8804,3.62577 -8.8804,3.62577 -9.6508,3.36431 -9.6508,3.36431 -11.3492,3.01676 -11.3492,3.01677 -10,1.95519 -10,1.9552 -13.5,1.56671 -13.5,1.5667 -22.5,-0.10603 -22.5,-0.10603 z"
       id="path3"
       inkscape:export-filename="pause-blue.svg"
       inkscape:export-xdpi="96"
       inkscape:export-ydpi="96" />
    <path
       style="fill:#eff7fa;fill-opacity:1"
       d="m 1163.9817,376.50702 v -117.5 h -37 -37 v 117.5 117.5 h 37 37 z"
       id="path5" />
    <path
       style="fill:#eff7fa;fill-opacity:1"
       d="m 1035.9817,376.50702 v -117.5 h -36.99996 -37 v 117.5 117.5 h 37 36.99996 z"
       id="path4" />
  </g>
</svg>
