<svg width="500" height="300" viewBox="0 0 500 300" fill="none" xmlns="http://www.w3.org/2000/svg">
<g clip-path="url(#clip0_4_48)">
<path d="M500 0H0V300H500V0Z" fill="#EFF7FA"/>
<path fill-rule="evenodd" clip-rule="evenodd" d="M227.469 133.994C224.942 137.918 225.607 158.932 227.934 163.454C230.794 169.04 241.235 175.092 247.619 175.358C255.732 175.69 263.047 169.772 266.904 162.922C270.03 157.403 270.828 139.248 268.5 133.928C264.111 132.531 231.658 132.531 227.469 133.994ZM268.367 125.748C270.362 121.359 270.229 98.4825 268.101 93.8939C258.857 74.2095 233.387 79.2636 227.668 94.4924C226.139 98.7485 226.006 121.891 227.735 125.748C231.725 127.477 264.377 127.477 268.367 125.748ZM275.749 156.804C272.756 179.747 241.168 188.459 227.934 171.767C219.356 160.927 220.952 150.952 220.952 137.984C220.952 127.344 219.821 108.657 221.55 98.948C225.474 76.5371 252.872 66.2959 268.567 83.9852C277.478 93.9604 275.815 104.8 275.815 117.236C275.815 127.81 276.946 147.294 275.749 156.804Z" fill="#0B3351" fill-opacity="0.03"/>
<path fill-rule="evenodd" clip-rule="evenodd" d="M285.459 152.216C292.242 155.607 284.129 172.631 280.87 176.954C271.56 189.19 265.774 187.993 260.521 192.449C249.215 201.959 265.043 208.875 268.235 213.463C277.611 227.296 256.597 224.635 249.481 224.635C242.432 224.635 219.689 227.961 227.004 214.527C229.797 209.473 246.422 203.821 236.713 193.18C232.524 188.658 223.147 187.993 216.031 178.085C212.839 173.629 205.591 157.336 210.844 153.346C215.765 155.075 214.967 187.395 248.55 187.129C281.601 186.929 280.604 154.676 285.459 152.216ZM262.915 218.118C260.92 211.734 254.336 213.463 248.55 213.463C243.363 213.463 234.718 211.867 233.521 217.919C236.979 220.313 258.858 220.113 262.915 218.118ZM242.432 194.776C241.102 198.633 245.624 207.345 246.954 209.074L247.885 209.141L248.949 209.207C250.878 206.88 254.602 198.101 253.538 194.643C253.205 193.779 242.964 193.18 242.432 194.776Z" fill="#0B3351" fill-opacity="0.03"/>
<path fill-rule="evenodd" clip-rule="evenodd" d="M238.641 149.09C242.897 150.088 252.872 150.088 257.395 148.891L256.597 144.302C252.54 142.772 242.166 142.307 238.242 144.834L238.641 149.09Z" fill="#0B3351" fill-opacity="0.03"/>
<path fill-rule="evenodd" clip-rule="evenodd" d="M239.506 157.336C242.033 161.127 251.676 160.063 255.533 158.866C255.6 153.945 252.94 155.142 248.218 155.142C243.895 155.142 241.767 154.078 239.506 157.336Z" fill="#0B3351" fill-opacity="0.03"/>
<path fill-rule="evenodd" clip-rule="evenodd" d="M211.11 130.071C203.662 125.017 207.386 101.874 215.765 102.14C219.29 109.987 213.837 108.125 212.507 115.773C211.243 123.088 216.763 125.083 211.11 130.071Z" fill="#0B3351" fill-opacity="0.03"/>
<path fill-rule="evenodd" clip-rule="evenodd" d="M200.869 101.209C192.423 105.133 190.428 131.135 198.741 132.731C204.061 124.884 198.275 125.748 198.807 117.169C199.339 108.857 205.191 107.859 200.869 101.209Z" fill="#0B3351" fill-opacity="0.03"/>
<path fill-rule="evenodd" clip-rule="evenodd" d="M183.778 140.977C176.396 131.733 180.054 89.1724 188.499 89.6379C191.958 104.069 186.504 100.744 185.241 114.709C183.911 128.209 189.43 131.866 183.778 140.977Z" fill="#0B3351" fill-opacity="0.03"/>
<path fill-rule="evenodd" clip-rule="evenodd" d="M282.2 124.019C289.449 123.953 288.85 107.394 281.203 103.869C277.146 107.46 282.267 108.657 282.599 114.11C282.865 119.431 277.678 118.3 282.2 124.019Z" fill="#0B3351" fill-opacity="0.03"/>
<path fill-rule="evenodd" clip-rule="evenodd" d="M293.372 133.994C300.82 126.413 297.096 91.4999 288.717 91.8324C285.192 103.736 290.645 100.943 291.975 112.381C293.239 123.487 287.719 126.546 293.372 133.994Z" fill="#0B3351" fill-opacity="0.03"/>
<path fill-rule="evenodd" clip-rule="evenodd" d="M301.95 96.2878C310.462 100.278 312.657 126.878 304.411 128.474C299.024 120.494 304.81 121.292 304.145 112.581C303.546 104.068 297.628 103.071 301.95 96.2878Z" fill="#0B3351" fill-opacity="0.03"/>
<path fill-rule="evenodd" clip-rule="evenodd" d="M312.524 88.3077C321.036 94.8914 323.297 138.982 315.051 141.642C309.665 128.408 315.45 129.805 314.785 115.241C314.187 101.209 308.268 99.5465 312.524 88.3077Z" fill="#0B3351" fill-opacity="0.03"/>
<path fill-rule="evenodd" clip-rule="evenodd" d="M234.984 92.8299C236.913 84.4507 257.329 83.8522 259.723 92.3644C254.203 97.2855 254.07 91.4998 247.354 91.5663C240.836 91.6993 240.836 97.5515 234.984 92.8299Z" fill="#0B3351" fill-opacity="0.03"/>
</g>
<defs>
<clipPath id="clip0_4_48">
<rect width="500" height="300" fill="white"/>
</clipPath>
</defs>
</svg>
