<svg width="350" height="450" viewBox="0 0 350 450" fill="none" xmlns="http://www.w3.org/2000/svg">
<path fill-rule="evenodd" clip-rule="evenodd" d="M142.905 202.002C139.305 207.59 140.252 237.512 143.567 243.951C147.641 251.905 162.515 260.522 171.609 260.901C183.166 261.374 193.586 252.947 199.081 243.193C203.534 235.335 204.671 209.484 201.354 201.908C195.102 199.919 148.872 199.919 142.905 202.002ZM201.165 190.261C204.007 184.011 203.817 151.437 200.786 144.903C187.618 116.874 151.335 124.071 143.188 145.756C141.01 151.816 140.821 184.769 143.284 190.261C148.967 192.723 195.481 192.723 201.165 190.261ZM211.681 234.482C207.417 267.151 162.419 279.556 143.567 255.788C131.348 240.353 133.621 226.149 133.621 207.684C133.621 192.533 132.01 165.925 134.473 152.1C140.063 120.189 179.092 105.606 201.45 130.794C214.144 144.998 211.775 160.433 211.775 178.14C211.775 193.197 213.386 220.94 211.681 234.482Z" fill="#0B3351" fill-opacity="0.03"/>
<path fill-rule="evenodd" clip-rule="evenodd" d="M225.513 227.949C235.176 232.777 223.618 257.018 218.976 263.174C205.713 280.597 197.471 278.892 189.988 285.237C173.882 298.779 196.43 308.626 200.977 315.159C214.333 334.856 184.398 331.067 174.261 331.067C164.22 331.067 131.822 335.803 142.242 316.674C146.221 309.478 169.904 301.43 156.073 286.278C150.106 279.839 136.748 278.892 126.611 264.784C122.064 258.439 111.739 235.239 119.222 229.558C126.232 232.02 125.095 278.041 172.935 277.662C220.017 277.377 218.597 231.452 225.513 227.949ZM193.398 321.788C190.557 312.697 181.177 315.159 172.935 315.159C165.546 315.159 153.231 312.887 151.526 321.504C156.452 324.913 187.619 324.628 193.398 321.788ZM164.22 288.551C162.325 294.043 168.767 306.448 170.662 308.91L171.988 309.005L173.504 309.099C176.251 305.786 181.556 293.285 180.041 288.361C179.566 287.131 164.978 286.278 164.22 288.551Z" fill="#0B3351" fill-opacity="0.03"/>
<path fill-rule="evenodd" clip-rule="evenodd" d="M158.819 223.498C164.882 224.919 179.091 224.919 185.534 223.214L184.398 216.68C178.618 214.502 163.84 213.839 158.25 217.438L158.819 223.498Z" fill="#0B3351" fill-opacity="0.03"/>
<path fill-rule="evenodd" clip-rule="evenodd" d="M160.052 235.239C163.652 240.637 177.388 239.122 182.883 237.418C182.978 230.411 179.189 232.115 172.462 232.115C166.304 232.115 163.273 230.6 160.052 235.239Z" fill="#0B3351" fill-opacity="0.03"/>
<path fill-rule="evenodd" clip-rule="evenodd" d="M119.601 196.416C108.991 189.22 114.296 156.266 126.232 156.645C131.254 167.818 123.486 165.167 121.591 176.057C119.791 186.473 127.654 189.314 119.601 196.416Z" fill="#0B3351" fill-opacity="0.03"/>
<path fill-rule="evenodd" clip-rule="evenodd" d="M105.013 155.319C92.9811 160.907 90.1392 197.931 101.981 200.204C109.56 189.031 101.317 190.261 102.075 178.045C102.833 166.209 111.169 164.788 105.013 155.319Z" fill="#0B3351" fill-opacity="0.03"/>
<path fill-rule="evenodd" clip-rule="evenodd" d="M80.6654 211.946C70.1495 198.783 75.3604 138.18 87.3905 138.843C92.318 159.392 84.5486 154.657 82.7495 174.542C80.8548 193.765 88.7168 198.972 80.6654 211.946Z" fill="#0B3351" fill-opacity="0.03"/>
<path fill-rule="evenodd" clip-rule="evenodd" d="M220.87 187.799C231.197 187.705 230.344 164.126 219.45 159.107C213.671 164.22 220.966 165.925 221.439 173.689C221.818 181.266 214.429 179.655 220.87 187.799Z" fill="#0B3351" fill-opacity="0.03"/>
<path fill-rule="evenodd" clip-rule="evenodd" d="M236.785 202.002C247.395 191.208 242.09 141.494 230.154 141.968C225.133 158.918 232.901 154.941 234.795 171.227C236.596 187.041 228.733 191.397 236.785 202.002Z" fill="#0B3351" fill-opacity="0.03"/>
<path fill-rule="evenodd" clip-rule="evenodd" d="M249.005 148.312C261.131 153.994 264.257 191.87 252.511 194.142C244.837 182.78 253.079 183.916 252.132 171.512C251.279 159.39 242.848 157.971 249.005 148.312Z" fill="#0B3351" fill-opacity="0.03"/>
<path fill-rule="evenodd" clip-rule="evenodd" d="M264.068 136.949C276.193 146.324 279.414 209.105 267.667 212.892C259.995 194.048 268.236 196.038 267.288 175.3C266.437 155.319 258.005 152.952 264.068 136.949Z" fill="#0B3351" fill-opacity="0.03"/>
<path fill-rule="evenodd" clip-rule="evenodd" d="M153.61 143.388C156.358 131.457 185.441 130.605 188.851 142.725C180.988 149.733 180.798 141.494 171.231 141.589C161.946 141.778 161.946 150.111 153.61 143.388Z" fill="#0B3351" fill-opacity="0.03"/>
</svg>
