<svg width="300" height="300" viewBox="0 0 300 300" fill="none" xmlns="http://www.w3.org/2000/svg">
<path fill-rule="evenodd" clip-rule="evenodd" d="M117.905 127.002C114.305 132.59 115.252 162.512 118.567 168.951C122.641 176.905 137.515 185.522 146.609 185.901C158.166 186.374 168.586 177.947 174.081 168.193C178.534 160.335 179.671 134.484 176.354 126.908C170.102 124.919 123.872 124.919 117.905 127.002ZM176.165 115.261C179.007 109.011 178.817 76.4371 175.786 69.9033C162.618 41.8744 126.335 49.071 118.188 70.7555C116.01 76.8158 115.821 109.769 118.284 115.261C123.967 117.723 170.481 117.723 176.165 115.261ZM186.681 159.482C182.417 192.151 137.419 204.556 118.567 180.788C106.348 165.353 108.621 151.149 108.621 132.684C108.621 117.533 107.01 90.9247 109.473 77.0999C115.063 45.1887 154.092 30.6061 176.45 55.7942C189.144 69.998 186.775 85.4326 186.775 103.14C186.775 118.197 188.386 145.94 186.681 159.482Z" fill="#0B3351" fill-opacity="0.03"/>
<path fill-rule="evenodd" clip-rule="evenodd" d="M200.513 152.949C210.176 157.777 198.618 182.018 193.976 188.174C180.713 205.597 172.471 203.892 164.988 210.237C148.882 223.779 171.43 233.626 175.977 240.159C189.333 259.856 159.398 256.067 149.261 256.067C139.22 256.067 106.822 260.803 117.242 241.674C121.221 234.478 144.904 226.43 131.073 211.278C125.106 204.839 111.748 203.892 101.611 189.784C97.064 183.439 86.739 160.239 94.2221 154.558C101.232 157.02 100.095 203.041 147.935 202.662C195.017 202.377 193.597 156.452 200.513 152.949ZM168.398 246.788C165.557 237.697 156.177 240.159 147.935 240.159C140.546 240.159 128.231 237.887 126.526 246.504C131.452 249.913 162.619 249.628 168.398 246.788ZM139.22 213.551C137.325 219.043 143.767 231.448 145.662 233.91L146.988 234.005L148.504 234.099C151.251 230.786 156.556 218.285 155.041 213.361C154.566 212.131 139.978 211.278 139.22 213.551Z" fill="#0B3351" fill-opacity="0.03"/>
<path fill-rule="evenodd" clip-rule="evenodd" d="M133.819 148.498C139.882 149.919 154.091 149.919 160.534 148.214L159.398 141.68C153.618 139.502 138.84 138.839 133.25 142.438L133.819 148.498Z" fill="#0B3351" fill-opacity="0.03"/>
<path fill-rule="evenodd" clip-rule="evenodd" d="M135.052 160.239C138.652 165.637 152.388 164.122 157.883 162.418C157.978 155.411 154.189 157.115 147.462 157.115C141.304 157.115 138.273 155.6 135.052 160.239Z" fill="#0B3351" fill-opacity="0.03"/>
<path fill-rule="evenodd" clip-rule="evenodd" d="M94.6013 121.416C83.9914 114.22 89.2963 81.2662 101.232 81.645C106.254 92.8185 98.486 90.1671 96.5913 101.057C94.7907 111.473 102.654 114.314 94.6013 121.416Z" fill="#0B3351" fill-opacity="0.03"/>
<path fill-rule="evenodd" clip-rule="evenodd" d="M80.0127 80.3193C67.9811 85.9068 65.1392 122.931 76.9813 125.204C84.5597 114.03 76.3175 115.261 77.0753 103.045C77.8332 91.2094 86.1695 89.7884 80.0127 80.3193Z" fill="#0B3351" fill-opacity="0.03"/>
<path fill-rule="evenodd" clip-rule="evenodd" d="M55.6654 136.946C45.1495 123.783 50.3604 63.1803 62.3905 63.8431C67.318 84.3917 59.5486 79.6572 57.7495 99.5422C55.8548 118.765 63.7168 123.972 55.6654 136.946Z" fill="#0B3351" fill-opacity="0.03"/>
<path fill-rule="evenodd" clip-rule="evenodd" d="M195.87 112.799C206.197 112.705 205.344 89.1263 194.45 84.107C188.671 89.2203 195.966 90.9247 196.439 98.6893C196.818 106.266 189.429 104.655 195.87 112.799Z" fill="#0B3351" fill-opacity="0.03"/>
<path fill-rule="evenodd" clip-rule="evenodd" d="M211.785 127.002C222.395 116.208 217.09 66.4944 205.154 66.9679C200.133 83.9176 207.901 79.9406 209.795 96.2273C211.596 112.041 203.733 116.397 211.785 127.002Z" fill="#0B3351" fill-opacity="0.03"/>
<path fill-rule="evenodd" clip-rule="evenodd" d="M224.005 73.312C236.131 78.9937 239.257 116.87 227.511 119.142C219.837 107.78 228.079 108.916 227.132 96.5121C226.279 84.3903 217.848 82.9707 224.005 73.312Z" fill="#0B3351" fill-opacity="0.03"/>
<path fill-rule="evenodd" clip-rule="evenodd" d="M239.068 61.949C251.193 71.3236 254.414 134.105 242.667 137.892C234.995 119.048 243.236 121.038 242.288 100.3C241.437 80.3193 233.005 77.9521 239.068 61.949Z" fill="#0B3351" fill-opacity="0.03"/>
<path fill-rule="evenodd" clip-rule="evenodd" d="M128.61 68.3882C131.358 56.457 160.441 55.6048 163.851 67.7254C155.988 74.7326 155.798 66.4943 146.231 66.589C136.946 66.7783 136.946 75.1114 128.61 68.3882Z" fill="#0B3351" fill-opacity="0.03"/>
</svg>
