<?xml version="1.0" encoding="UTF-8" standalone="no"?>
<!-- Created with Inkscape (http://www.inkscape.org/) -->

<svg
   version="1.1"
   id="svg1"
   width="622.00073"
   height="622"
   viewBox="0 0 622.00073 622"
   sodipodi:docname="play-pause-and-stop-button-set-vector-35899950.png"
   xmlns:inkscape="http://www.inkscape.org/namespaces/inkscape"
   xmlns:sodipodi="http://sodipodi.sourceforge.net/DTD/sodipodi-0.dtd"
   xmlns="http://www.w3.org/2000/svg"
   xmlns:svg="http://www.w3.org/2000/svg">
  <defs
     id="defs1" />
  <sodipodi:namedview
     id="namedview1"
     pagecolor="#505050"
     bordercolor="#eeeeee"
     borderopacity="1"
     inkscape:showpageshadow="0"
     inkscape:pageopacity="0"
     inkscape:pagecheckerboard="0"
     inkscape:deskcolor="#505050"
     showgrid="false" />
  <g
     inkscape:groupmode="layer"
     inkscape:label="Image"
     id="g1"
     transform="translate(-66.98175,-65.007019)">
    <path
       style="fill:#f7bf00;fill-opacity:1"
       d="m 349.98175,686.31619 -3.5,-0.37076 -13.86826,-1.97478 -13.86826,-1.97477 -14.13174,-3.42133 -14.13174,-3.42133 -11.5,-3.9324 -11.5,-3.9324 -8.79004,-3.65243 -8.79005,-3.65243 -10.89979,-5.46645 -10.89979,-5.46645 -10.31016,-6.12401 -10.31017,-6.12401 -8.5,-6.09038 -8.5,-6.09038 -7.5,-6.01986 -7.5,-6.01985 -9,-8.22645 -9,-8.22644 -9.72911,-10.81113 -9.72911,-10.81113 -8.33601,-11 -8.33601,-11 -7.23665,-11.5 -7.23666,-11.5 -6.31956,-12.5 -6.319562,-12.5 -5.02861,-12.5 -5.02861,-12.5 -3.04004,-10 -3.04004,-10 -2.13176,-8.44761 -2.13176,-8.4476 -1.92948,-10.50198 -1.92949,-10.50197 -1.49877,-14.27198 -1.49877,-14.27198 0.0205,-16.27844 0.0205,-16.27844 1.43263,-14.5 1.43262,-14.5 1.58339,-9 1.5834,-9 3.02837,-12.3614 3.02838,-12.36139 3.80897,-11.13861 3.80898,-11.1386 3.7508,-9.29932 3.75081,-9.29932 6.927582,-13.60781 6.92759,-13.60781 9.26843,-14.09287 9.26843,-14.09287 8.31367,-10.5 8.31367,-10.5 15.11562,-15.08184 15.11563,-15.08184 10.37192,-8.22434 10.37191,-8.22435 8.62925,-5.80229 8.62924,-5.80229 6.99884,-4.28852 6.99884,-4.28852 13.5,-6.78311 13.5,-6.78311 10,-3.95036 10,-3.950357 11,-3.52549 11,-3.5255 10.5,-2.528008 10.5,-2.52801 12.5,-2.048767 12.5,-2.048768 12.89522,-1.017265 12.89521,-1.017265 13.60479,0.01976 13.60478,0.01976 14.25476,1.450305 14.25476,1.450305 9.24524,1.595675 9.24524,1.595675 10,2.374333 10,2.374333 9.64907,2.991007 9.64908,2.991 10.85092,4.204717 10.85093,4.20471 11,5.25614 11,5.25614 8.5,4.9247 8.5,4.92471 10.39208,6.8375 10.39208,6.8375 9.60792,7.68657 9.60792,7.68656 8.5,7.93495 8.5,7.93495 8.5,8.9855 8.5,8.98551 6.80303,8.48885 6.80303,8.48884 6.79249,10 6.7925,10 5.19622,8.85135 5.19622,8.85136 4.95476,9.87352 4.95477,9.87352 5.04473,12.64488 5.04474,12.64488 3.94508,13.13024 3.94509,13.13025 2.09498,10 2.09498,10 0.93191,5.5 0.93191,5.5 1.47715,13 1.47716,13 0.01,19.14405 0.01,19.14404 -1.00802,10.35596 -1.00803,10.35595 -1.58173,10 -1.58172,10 -2.82859,12.0159 -2.8286,12.0159 -3.68671,11.4841 -3.68671,11.4841 -4.32345,10.62275 -4.32345,10.62275 -6.18285,12.37725 -6.18285,12.37725 -7.02987,11.36842 -7.02988,11.36841 -7.23682,9.72397 -7.23682,9.72397 -9.14921,10.59763 -9.1492,10.59763 -9.72275,9.16213 -9.72274,9.16213 -11.5,9.25915 -11.5,9.25915 -11.5,7.54833 -11.5,7.54834 -11.5,6.20561 -11.5,6.20562 -8.84618,3.90734 -8.84617,3.90734 -8.65383,3.34136 -8.65382,3.34136 -8.83185,2.69317 -8.83186,2.69316 -9.66814,2.38423 -9.66815,2.38422 -12,2.00753 -12,2.00753 -9.71059,1.05113 -9.71133,1.05114 -22.78939,-0.16004 -22.78941,-0.16003 z"
       id="path1"
       inkscape:export-filename="play-blue.svg"
       inkscape:export-xdpi="96"
       inkscape:export-ydpi="96" />
    <path
       style="fill:#eff7fa;fill-opacity:1"
       d="m 331.23422,497.814 33.24753,-21.19302 10.23111,-6.55698 10.23111,-6.55698 40.26889,-25.68929 40.26889,-25.68929 27.49506,-17.54588 27.49505,-17.54588 0.21387,-0.76483 0.21387,-0.76483 -8.20892,-5.10104 -8.20893,-5.10105 -14.5,-9.28336 -14.5,-9.28335 -17.5,-11.19465 -17.5,-11.19464 -24,-15.30492 -24,-15.30493 -15,-9.53507 -15,-9.53508 -8,-5.17329 -8,-5.1733 -10,-6.34252 -10,-6.34252 -13.5,-8.65521 -13.5,-8.65521 -1.25,-0.71895 -1.25,-0.71894 V 375.948 519.00702 h 0.50247 0.50247 z"
       id="path2" />
  </g>
</svg>
