<svg width="40" height="40" viewBox="0 0 40 40" fill="none" xmlns="http://www.w3.org/2000/svg">
<g clip-path="url(#clip0_238_1251)">
<rect width="40" height="40" rx="20" fill="black"/>
<path fill-rule="evenodd" clip-rule="evenodd" d="M18.4057 0.0736406C17.4609 0.172483 17.0421 0.232625 15.9683 0.424346C15.5808 0.493498 14.4095 0.801951 13.8609 0.979461C13.5019 1.09543 12.91 1.30961 12.6676 1.41112C12.5838 1.44627 12.3553 1.54029 12.1598 1.62035C8.29705 3.2003 4.76433 6.36008 2.57371 10.194C2.32768 10.6246 1.69535 11.9173 1.54339 12.3003C1.49363 12.4259 1.41327 12.62 1.36503 12.7317C1.06048 13.4357 0.520441 15.3192 0.353758 16.259C0.321513 16.4405 0.275431 16.6917 0.251438 16.8173C0.201801 17.0763 0.123981 17.7486 0.0490816 18.5644C-0.0161699 19.2755 -0.0164236 20.891 0.048701 21.5267C0.152672 22.542 0.211957 22.9992 0.309961 23.5421C0.403268 24.0585 0.657292 25.1653 0.764182 25.5215C0.910808 26.0101 1.33367 27.255 1.36757 27.2979C1.38953 27.3258 1.42457 27.4057 1.44526 27.4755C1.48119 27.5967 1.51813 27.6846 1.77533 28.2622C4.07462 33.4237 9.23228 37.9134 14.3433 39.2028C14.4271 39.2239 14.7699 39.3133 15.105 39.4014C18.1102 40.1914 21.9845 40.2001 24.8674 39.4236C25.014 39.3842 25.2654 39.3168 25.4259 39.274C29.7833 38.1137 34.0301 35.0456 36.5939 31.2059C37.2539 30.2173 38.3874 28.1402 38.3874 27.9193C38.3874 27.8818 38.4068 27.8294 38.4305 27.8029C38.5273 27.695 39.1007 26.0842 39.2744 25.4327C39.3172 25.2722 39.3849 25.0202 39.4249 24.8726C40.1981 22.0193 40.1911 18.1709 39.4074 15.1424C39.3243 14.8214 39.2417 14.5017 39.2239 14.4319C38.1897 10.3877 34.9908 5.98108 31.2783 3.4868C30.845 3.19561 30.0627 2.70787 30.0291 2.70787C30.0168 2.70787 29.9193 2.65267 29.8124 2.58517C29.6017 2.45232 28.6518 1.96877 28.2823 1.80636C28.1566 1.75104 27.9053 1.64293 27.7237 1.56592C27.5422 1.48902 27.3189 1.39335 27.2276 1.35351C27.0495 1.27573 25.9193 0.89521 25.6672 0.828216C23.0056 0.120207 20.4755 -0.142696 18.4057 0.0736406ZM19.7767 10.6791C20.8255 10.7544 22.4265 10.9229 23.0774 11.0265C23.245 11.0531 23.549 11.0994 23.753 11.1295C26.9941 11.6066 30.5938 12.7867 33.2841 14.2543C34.527 14.9323 34.9442 15.7978 34.5308 16.8414C34.1576 17.7839 32.8811 18.2825 32.0146 17.8242C31.2775 17.4345 29.8525 16.7226 29.6533 16.6447C29.5277 16.5955 29.3563 16.5255 29.2725 16.4893C28.4859 16.1488 26.7876 15.6037 25.7179 15.3482C25.5783 15.315 25.3384 15.2565 25.1847 15.2186C24.8688 15.1403 23.832 14.9437 22.9251 14.7902C18.5139 14.0431 12.9293 14.2506 9.08768 15.304C8.44761 15.4794 8.29832 15.5033 7.94515 15.486C6.13855 15.398 5.53237 13.0657 7.05651 12.067C7.80474 11.5766 11.3934 10.8957 14.3433 10.6841C15.2456 10.6194 18.8993 10.6161 19.7767 10.6791ZM18.2788 17.5263C20.9725 17.6667 23.5785 18.1495 26.0537 18.9667C28.8594 19.8931 31.3645 21.1959 31.6996 21.903C32.4184 23.4201 30.7193 24.7767 29.2979 23.8206C28.8636 23.5285 27.4267 22.8169 26.632 22.5004C23.4783 21.2443 20.1305 20.6222 16.5355 20.6244C14.1815 20.626 12.1249 20.9035 9.74782 21.5403C9.10635 21.7122 8.88761 21.7123 8.49991 21.5409C7.15934 20.9482 7.2496 19.0988 8.64235 18.6263C11.0939 17.7946 14.9583 17.3535 18.2788 17.5263ZM18.8988 24.0753C19.1862 24.1033 19.6612 24.1503 19.9545 24.1796C22.2122 24.4048 24.7874 25.1301 26.8859 26.1316C27.5969 26.471 28.7768 27.1291 28.9302 27.272C29.8653 28.1427 29.1152 29.67 27.8674 29.436C27.7737 29.4185 27.4232 29.2492 27.0883 29.06C24.4962 27.595 22.0279 26.8573 18.8119 26.5861C17.4607 26.4721 14.8305 26.5231 13.7424 26.6843C13.654 26.6973 13.3989 26.7337 13.1754 26.765C12.4603 26.8652 11.4597 27.0266 11.0935 27.1008C10.898 27.1405 10.5099 27.2209 10.231 27.2793C9.06496 27.5241 8.40457 27.1091 8.40292 26.1305C8.40153 25.3696 8.73426 25.0572 9.79859 24.8195C12.6589 24.1803 16.6409 23.8548 18.8988 24.0753Z" fill="#1DDA63"/>
</g>
<defs>
<clipPath id="clip0_238_1251">
<rect width="40" height="40" rx="20" fill="white"/>
</clipPath>
</defs>
</svg>
