<?xml version="1.0" encoding="UTF-8" standalone="no"?>
<!-- Created with Inkscape (http://www.inkscape.org/) -->

<svg
   version="1.1"
   id="svg1"
   width="622.28589"
   height="621.31354"
   viewBox="0 0 622.28589 621.31354"
   sodipodi:docname="play-pause-and-stop-button-set-vector-35899950.png"
   xmlns:inkscape="http://www.inkscape.org/namespaces/inkscape"
   xmlns:sodipodi="http://sodipodi.sourceforge.net/DTD/sodipodi-0.dtd"
   xmlns="http://www.w3.org/2000/svg"
   xmlns:svg="http://www.w3.org/2000/svg">
  <defs
     id="defs1" />
  <sodipodi:namedview
     id="namedview1"
     pagecolor="#505050"
     bordercolor="#eeeeee"
     borderopacity="1"
     inkscape:showpageshadow="0"
     inkscape:pageopacity="0"
     inkscape:pagecheckerboard="0"
     inkscape:deskcolor="#505050"
     showgrid="false" />
  <g
     inkscape:groupmode="layer"
     inkscape:label="Image"
     id="g1"
     transform="translate(-1436.9817,-65.571457)">
    <path
       style="fill:#0b3351;fill-opacity:1"
       d="m 1712.4817,685.45651 -12,-1.4285 -8.5,-1.57013 -8.5,-1.57013 -11.7065,-2.91209 -11.7065,-2.91208 -10.7935,-3.64319 -10.7935,-3.64319 -8.5,-3.50751 -8.5,-3.50751 -12,-6.00952 -12,-6.00951 -10,-5.98922 -10,-5.98921 -8.5,-6.07761 -8.5,-6.07761 -10,-8.00239 -10,-8.0024 -12.5,-12.54885 -12.5,-12.54884 -9.6194,-12 -9.6195,-12 -5.4369,-8 -5.437,-8 -5.0837,-8.5 -5.0837,-8.5 -5.5563,-11.12649 -5.5563,-11.12648 -4.0476,-9.7254 -4.0476,-9.7254 -4.4189,-13.72329 -4.4189,-13.72329 -3.0336,-13.92482 -3.0335,-13.92483 -1.0458,-7 -1.0458,-7 -1.0077,-10.35595 -1.0078,-10.35596 v -19.44186 -19.44186 l 1.567,-13.70219 1.5669,-13.70218 2.496,-12.5 2.496,-12.5 3.3848,-12 3.3847,-12 2.9931,-8.23992 2.9931,-8.23993 4.1555,-9.7263 4.1555,-9.7263 3.2974,-6.53378 3.2974,-6.53377 4.934,-8.5 4.934,-8.5 4.8186,-7.5 4.8187,-7.5 9.0828,-12 9.0828,-12 17.0209,-17.05606 17.0208,-17.05606 8.5,-6.77678 8.5,-6.77678 14,-9.32764 14,-9.32765 8.5,-4.67491 8.5,-4.67492 11.5458,-5.29633 11.5459,-5.29632 9.4541,-3.54002 9.4542,-3.540017 11.5,-3.48383 11.5,-3.48383 12.7913,-2.589406 12.7914,-2.589406 12.2086,-1.722801 12.2087,-1.7228 26.5,0.01685 26.5,0.01686 12.5,1.741878 12.5,1.741879 14,3.058573 14,3.058574 11.2362,3.399689 11.2361,3.3997 12.2639,4.862477 12.2638,4.86248 11.2605,5.6519 11.2604,5.65189 10.7396,6.37845 10.7395,6.37844 8,5.71733 8,5.71733 9.4751,7.64063 9.4752,7.64063 10.8797,10.48206 10.8798,10.48206 9.271,11.01794 9.271,11.01794 7.2284,10 7.2284,10 6.3862,10.74656 6.3863,10.74657 5.8835,11.75343 5.8835,11.75344 4.5256,11.5 4.5257,11.5 3.6275,11.5 3.6275,11.5 2.9512,14.18975 2.9512,14.18976 1.5559,11.31024 1.5559,11.31025 0.6087,20.00685 0.6087,20.00685 -1.1903,13.49315 -1.1902,13.49315 -1.972,12 -1.9719,12 -3.0667,12.41397 -3.0667,12.41397 -4.9205,14.24462 -4.9206,14.24461 -4.8906,11.0635 -4.8907,11.06349 -6.252,11.27792 -6.252,11.27792 -4.4657,7 -4.4658,7 -6.5974,9 -6.5973,9 -7.67,9 -7.6699,9 -13.3679,13.00878 -13.3678,13.00877 -8.5,6.79425 -8.5,6.79426 -10,6.79585 -10,6.79586 -9.8333,5.75845 -9.8332,5.75845 -13.1668,6.30301 -13.1667,6.30301 -12.7151,4.5828 -12.715,4.5828 -10.378,2.91408 -10.378,2.91409 -9.9069,2.03274 -9.907,2.03274 -10.5,1.67515 -10.5,1.67516 -28,0.32386 -28,0.32387 z"
       id="path6" />
    <path
       style="fill:#f9f9f9"
       d="m 1864.9817,376.50702 v -117.5 h -117.5 -117.5 v 117.5 117.5 h 117.5 117.5 z"
       id="path7" />
  </g>
</svg>
