<?xml version="1.0" encoding="UTF-8" standalone="no"?>
<!-- Created with Inkscape (http://www.inkscape.org/) -->

<svg
   version="1.1"
   id="svg1"
   width="341.33334"
   height="341.33334"
   viewBox="0 0 341.33334 341.33334"
   sodipodi:docname="download.png"
   inkscape:export-filename="..\volume-blue.svg"
   inkscape:export-xdpi="96"
   inkscape:export-ydpi="96"
   xmlns:inkscape="http://www.inkscape.org/namespaces/inkscape"
   xmlns:sodipodi="http://sodipodi.sourceforge.net/DTD/sodipodi-0.dtd"
   xmlns="http://www.w3.org/2000/svg"
   xmlns:svg="http://www.w3.org/2000/svg">
  <defs
     id="defs1" />
  <sodipodi:namedview
     id="namedview1"
     pagecolor="#505050"
     bordercolor="#eeeeee"
     borderopacity="1"
     inkscape:showpageshadow="0"
     inkscape:pageopacity="0"
     inkscape:pagecheckerboard="0"
     inkscape:deskcolor="#505050" />
  <g
     inkscape:groupmode="layer"
     inkscape:label="Image"
     id="g1">
    <path
       style="fill:#0b3351;fill-opacity:1;stroke:none"
       d="m 178.05748,12.554614 c -9.93237,0.298889 -16.09638,7.197672 -22.66666,13.765422 L 124.72415,56.986703 C 110.41956,71.291289 86.769146,86.499257 78.038966,104.9867 c -4.17189,8.83461 -2.64814,19.84906 -2.64814,29.33333 v 56 c 0,9.49058 -1.6041,20.60445 2.93209,29.33334 8.51417,16.38358 29.376024,30.97479 42.401234,44 l 34.66667,34.66667 c 7.12112,7.10738 14.42876,14.68027 25.33333,13.67901 25.27357,-2.32064 17.33335,-47.1971 17.33335,-64.34568 V 66.320037 c 0,-17.046774 6.66196,-54.56773 -20.00002,-53.765423 m 72.08644,62.691347 c -5.13004,1.629903 -5.43253,7.083435 -2.29014,10.703715 7.66512,8.830787 19.08285,13.604691 26.72842,23.037024 23.53977,29.04097 26.01314,70.46195 4.25309,101.33333 -8.34046,11.83277 -19.77108,17.75411 -29.82101,27.40125 -4.69421,4.50606 -1.96675,12.53387 5.04322,11.63578 11.20412,-1.4354 23.48447,-15.04415 30.31482,-23.03703 26.38074,-30.87079 30.71321,-78.23112 10.20988,-113.33333 -7.47209,-12.79237 -17.53829,-24.05741 -29.85804,-32.370378 -3.79915,-2.563558 -9.69612,-6.922139 -14.58024,-5.370361 M 64.724156,223.65337 c -0.893716,-41.49521 -0.682388,-81.4926 0,-122.66666 -12.98757,0 -34.83552,-4.300327 -44.901237,5.76541 -7.014486,7.01448 -5.765433,17.20707 -5.765433,26.23458 v 60 c 0,9.34094 -0.837382,19.1583 7.03704,25.91357 10.26214,8.80363 31.01884,4.7531 43.62963,4.7531 M 222.08836,118.00521 c -5.21334,1.48985 -6.64842,7.91095 -2.40741,11.31482 4.75621,3.81736 10.96334,4.74793 15.62964,9.18518 13.02425,12.38497 14.16329,31.52421 2.37655,45.12346 -5.00165,5.77079 -15.9208,7.39087 -19.53705,13.62345 -2.8926,4.98539 1.40944,9.76009 6.57407,9.61729 32.69544,-0.90395 41.97823,-47.54307 27.5247,-69.88271 -5.1641,-7.98173 -19.06238,-22.15304 -30.1605,-18.98149 z"
       id="path1"
       sodipodi:nodetypes="ccsssssscsssccsssssssscccsssscssssscss" />
  </g>
</svg>
