<svg width="40" height="30" viewBox="0 0 40 30" fill="none" xmlns="http://www.w3.org/2000/svg">
<g clip-path="url(#clip0_238_1265)">
<path d="M36.587 5.36346C36.1565 3.63983 34.8921 2.28531 33.2833 1.82391C30.3703 0.986817 18.6841 0.986816 18.6841 0.986816C18.6841 0.986816 6.99811 0.986817 4.08505 1.82391C2.47626 2.28531 1.21198 3.63983 0.781328 5.36346C2.33881e-07 8.48444 0 15 0 15C0 15 2.33881e-07 21.5155 0.781328 24.6365C1.21198 26.3602 2.47626 27.7147 4.08505 28.176C6.99811 29.0131 18.6841 29.0131 18.6841 29.0131C18.6841 29.0131 30.3703 29.0131 33.2833 28.176C34.8921 27.7147 36.1565 26.3602 36.587 24.6365C37.3684 21.5155 37.3684 15 37.3684 15C37.3684 15 37.3653 8.48444 36.587 5.36346Z" fill="#FF0000"/>
<path d="M14.9438 21.0052L24.652 15.0006L14.9438 8.99585V21.0052Z" fill="white"/>
</g>
<defs>
<clipPath id="clip0_238_1265">
<rect width="40" height="28.0263" fill="white" transform="translate(0 0.986816)"/>
</clipPath>
</defs>
</svg>
