<svg width="40" height="40" fill="none" xmlns="http://www.w3.org/2000/svg"><g clip-path="url(#a)"><path d="M40.02 19.99c0-11.05-8.959-20.01-20.01-20.01C8.959-.02 0 8.94 0 19.99c0 9.384 6.46 17.259 15.176 19.42V26.106H11.05V19.99h4.126v-2.635c0-6.81 3.082-9.967 9.769-9.967 1.267 0 3.455.248 4.35.497v5.543c-.473-.05-1.293-.075-2.312-.075-3.281 0-4.549 1.243-4.549 4.475v2.162h6.536l-1.123 6.115h-5.413v13.748c9.908-1.196 17.586-9.632 17.586-19.863Z" fill="#0866FF"/><path d="M27.833 26.112 28.956 20h-6.533v-2.162c0-3.23 1.267-4.471 4.547-4.471 1.018 0 1.838.024 2.31.074v-5.54c-.894-.249-3.08-.497-4.348-.497-6.683 0-9.763 3.155-9.763 9.962V20h-4.125v6.112h4.124V39.41a20.041 20.041 0 0 0 7.255.442v-13.74h5.41Z" fill="#fff"/></g><defs><clipPath id="a"><path fill="#fff" d="M0 0h40v40H0z"/></clipPath></defs></svg>