<?xml version="1.0" encoding="UTF-8"?>
<!DOCTYPE svg PUBLIC "-//W3C//DTD SVG 1.1//EN" "http://www.w3.org/Graphics/SVG/1.1/DTD/svg11.dtd">
<!-- Creator: CorelDRAW X8 -->
<svg xmlns="http://www.w3.org/2000/svg" xml:space="preserve" width="985px" height="985px" version="1.1" style="shape-rendering:geometricPrecision; text-rendering:geometricPrecision; image-rendering:optimizeQuality; fill-rule:evenodd; clip-rule:evenodd"
viewBox="0 0 158 158"
 xmlns:xlink="http://www.w3.org/1999/xlink">
 <defs>
  <style type="text/css">
   <![CDATA[
    .fil0 {fill:#0B3351}
    .fil1 {fill:#0B3351;fill-rule:nonzero}
   ]]>
  </style>
 </defs>
 <g id="Layer_x0020_1">
  <metadata id="CorelCorpID_0Corel-Layer"/>
  <path class="fil0" d="M77 153c0,-2 -2,-3 -4,-3l-12 -2c-3,-1 -5,-2 -8,-2l-4 -2c-3,-2 -6,-4 -9,-5 -3,-2 -5,-4 -8,-7 -8,-6 -16,-18 -19,-28 -4,-11 -5,-20 -5,-31 1,-2 1,-5 1,-7 1,-2 1,-4 2,-6 1,-5 3,-10 6,-14 0,-1 0,-1 0,-2 1,-1 2,-2 3,-4 12,-18 30,-29 51,-31 17,-2 33,2 47,11 0,0 1,1 2,1l10 8c2,3 7,8 8,11 4,6 6,9 8,16 2,4 3,10 4,14 -1,-1 -2,-1 -2,-2l-10 -7c-2,-2 -5,-2 -6,0 -1,2 -1,4 1,6l19 15c3,1 6,0 6,-4 0,-16 -6,-33 -14,-45 -2,-2 -4,-5 -6,-7l-1 -1c-1,-1 -5,-5 -7,-6 0,-1 0,-1 -1,-1l-4 -4c-1,0 -1,0 -1,0l-8 -5c-2,-1 -5,-2 -8,-4 -10,-4 -22,-5 -33,-5 -5,0 -11,1 -16,3 -5,1 -9,2 -14,5 -8,4 -14,8 -20,14 -4,3 -11,11 -14,16 -1,3 -2,5 -4,8 -2,5 -3,10 -5,15 0,1 0,3 -1,4 0,2 -1,5 -1,7 0,1 0,2 0,4 0,8 1,17 3,25l1 4c3,6 6,13 9,18 1,1 2,2 2,3 3,3 7,8 10,11 2,2 4,4 6,5 3,2 6,5 9,6l3 2c1,0 3,1 5,2l5 2c2,1 5,2 7,2l3 1c2,0 4,1 6,1 3,0 7,1 8,-2 0,-1 1,-2 0,-3z"/>
  <g id="_2597040407936">
   <path class="fil1" d="M98 108c-7,0 -12,-3 -16,-9 -3,-5 -5,-12 -5,-20 0,-8 2,-15 5,-20 4,-6 9,-9 16,-9 6,0 11,3 15,9 4,5 6,12 6,20 0,8 -2,15 -6,20 -4,6 -9,9 -15,9zm0 -11c2,0 4,-2 6,-5 2,-4 3,-8 3,-13 0,-5 -1,-9 -3,-13 -2,-3 -4,-5 -6,-5 -3,0 -5,2 -7,5 -2,4 -3,8 -3,13 0,5 1,9 3,13 2,3 4,5 7,5z"/>
   <path class="fil0" d="M54 51c0,0 0,-1 0,-1l10 0c1,0 1,1 1,1l0 56c0,0 0,1 -1,1l-9 0c-1,0 -1,-1 -1,-1l0 -39c0,-1 -1,-1 -2,-1l-5 6c0,0 -1,0 -1,0l-7 -7c0,0 0,-1 0,-1l15 -14z"/>
  </g>
 </g>
</svg>
