<svg width="40" height="40" fill="none" xmlns="http://www.w3.org/2000/svg"><g clip-path="url(#a)"><path d="M20.006 0C11.656 0 9.215.009 8.74.048c-1.713.142-2.78.412-3.941.99A7.985 7.985 0 0 0 2.5 2.722C1.23 4.04.463 5.661.184 7.587.05 8.523.01 8.713.001 13.492c-.003 1.592 0 3.688 0 6.5 0 8.345.01 10.786.05 11.26.138 1.667.4 2.717.953 3.865 1.059 2.197 3.08 3.846 5.46 4.461.825.213 1.736.33 2.905.385.495.022 5.543.037 10.595.037 5.051 0 10.103-.006 10.585-.03 1.354-.064 2.14-.17 3.01-.395a8.374 8.374 0 0 0 5.46-4.47c.543-1.12.818-2.21.943-3.791.027-.345.038-5.84.038-11.327 0-5.488-.012-10.973-.04-11.318-.126-1.606-.4-2.686-.961-3.828a7.93 7.93 0 0 0-1.712-2.346C35.964 1.231 34.345.462 32.417.183c-.934-.135-1.12-.175-5.9-.183h-6.51Z" fill="url(#b)"/><path d="M20.006 0C11.656 0 9.215.009 8.74.048c-1.713.142-2.78.412-3.941.99A7.985 7.985 0 0 0 2.5 2.722C1.23 4.04.463 5.661.184 7.587.05 8.523.01 8.713.001 13.492c-.003 1.592 0 3.688 0 6.5 0 8.345.01 10.786.05 11.26.138 1.667.4 2.717.953 3.865 1.059 2.197 3.08 3.846 5.46 4.461.825.213 1.736.33 2.905.385.495.022 5.543.037 10.595.037 5.051 0 10.103-.006 10.585-.03 1.354-.064 2.14-.17 3.01-.395a8.374 8.374 0 0 0 5.46-4.47c.543-1.12.818-2.21.943-3.791.027-.345.038-5.84.038-11.327 0-5.488-.012-10.973-.04-11.318-.126-1.606-.4-2.686-.961-3.828a7.93 7.93 0 0 0-1.712-2.346C35.964 1.231 34.345.462 32.417.183c-.934-.135-1.12-.175-5.9-.183h-6.51Z" fill="url(#c)"/><path d="M20.006 0C11.656 0 9.215.009 8.74.048c-1.713.142-2.78.412-3.941.99A7.985 7.985 0 0 0 2.5 2.722C1.23 4.04.463 5.661.184 7.587.05 8.523.01 8.713.001 13.492c-.003 1.592 0 3.688 0 6.5 0 8.345.01 10.786.05 11.26.138 1.667.4 2.717.953 3.865 1.059 2.197 3.08 3.846 5.46 4.461.825.213 1.736.33 2.905.385.495.022 5.543.037 10.595.037 5.051 0 10.103-.006 10.585-.03 1.354-.064 2.14-.17 3.01-.395a8.374 8.374 0 0 0 5.46-4.47c.543-1.12.818-2.21.943-3.791.027-.345.038-5.84.038-11.327 0-5.488-.012-10.973-.04-11.318-.126-1.606-.4-2.686-.961-3.828a7.93 7.93 0 0 0-1.712-2.346C35.964 1.231 34.345.462 32.417.183c-.934-.135-1.12-.175-5.9-.183h-6.51Z" fill="url(#d)"/><path d="M20.006 0C11.656 0 9.215.009 8.74.048c-1.713.142-2.78.412-3.941.99A7.985 7.985 0 0 0 2.5 2.722C1.23 4.04.463 5.661.184 7.587.05 8.523.01 8.713.001 13.492c-.003 1.592 0 3.688 0 6.5 0 8.345.01 10.786.05 11.26.138 1.667.4 2.717.953 3.865 1.059 2.197 3.08 3.846 5.46 4.461.825.213 1.736.33 2.905.385.495.022 5.543.037 10.595.037 5.051 0 10.103-.006 10.585-.03 1.354-.064 2.14-.17 3.01-.395a8.374 8.374 0 0 0 5.46-4.47c.543-1.12.818-2.21.943-3.791.027-.345.038-5.84.038-11.327 0-5.488-.012-10.973-.04-11.318-.126-1.606-.4-2.686-.961-3.828a7.93 7.93 0 0 0-1.712-2.346C35.964 1.231 34.345.462 32.417.183c-.934-.135-1.12-.175-5.9-.183h-6.51Z" fill="url(#e)"/><path d="M20.008 5.136c-4.039 0-4.546.018-6.132.09-1.584.072-2.664.323-3.61.69A7.283 7.283 0 0 0 7.632 7.63a7.295 7.295 0 0 0-1.717 2.632c-.369.945-.62 2.026-.69 3.607-.072 1.585-.09 2.092-.09 6.128s.018 4.541.09 6.127c.072 1.582.323 2.662.69 3.606a7.28 7.28 0 0 0 1.716 2.633 7.283 7.283 0 0 0 2.633 1.715c.947.368 2.027.618 3.61.69 1.587.073 2.093.09 6.132.09 4.04 0 4.545-.017 6.131-.09 1.584-.072 2.665-.322 3.612-.69a7.277 7.277 0 0 0 2.633-1.715 7.294 7.294 0 0 0 1.716-2.632c.366-.946.617-2.026.691-3.607.071-1.585.09-2.09.09-6.127 0-4.036-.019-4.542-.09-6.128-.074-1.582-.325-2.662-.691-3.607a7.293 7.293 0 0 0-1.716-2.632 7.27 7.27 0 0 0-2.634-1.714c-.948-.367-2.03-.618-3.613-.69-1.586-.072-2.091-.09-6.132-.09h.005Zm-1.334 2.678h1.334c3.971 0 4.442.014 6.01.086 1.45.066 2.237.308 2.761.511a4.6 4.6 0 0 1 1.71 1.112c.52.52.842 1.015 1.112 1.709.204.523.446 1.31.512 2.759.071 1.566.087 2.037.087 6.003s-.016 4.437-.087 6.003c-.066 1.45-.308 2.236-.512 2.759a4.595 4.595 0 0 1-1.113 1.707c-.52.52-1.015.842-1.709 1.111-.524.205-1.311.446-2.761.513-1.568.07-2.039.086-6.01.086-3.971 0-4.442-.015-6.01-.086-1.45-.067-2.237-.31-2.761-.513a4.608 4.608 0 0 1-1.71-1.111 4.606 4.606 0 0 1-1.113-1.709c-.204-.523-.447-1.31-.513-2.758-.07-1.567-.085-2.037-.085-6.006 0-3.968.014-4.437.085-6.003.067-1.45.309-2.236.513-2.76A4.604 4.604 0 0 1 9.527 9.52a4.616 4.616 0 0 1 1.71-1.113c.524-.204 1.311-.445 2.761-.512 1.372-.062 1.904-.08 4.676-.084v.004Zm9.273 2.468a1.784 1.784 0 1 0-.002 3.568 1.784 1.784 0 0 0 .002-3.569Zm-7.939 2.083a7.635 7.635 0 0 0-7.637 7.632c0 4.215 3.42 7.63 7.637 7.63a7.633 7.633 0 0 0 7.636-7.63 7.634 7.634 0 0 0-7.636-7.632Zm0 2.678a4.956 4.956 0 0 1 4.957 4.954 4.956 4.956 0 0 1-4.957 4.954 4.956 4.956 0 0 1-4.957-4.954 4.955 4.955 0 0 1 4.957-4.954Z" fill="#fff"/></g><defs><radialGradient id="b" cx="0" cy="0" r="1" gradientUnits="userSpaceOnUse" gradientTransform="matrix(-24.59814 6.9374 -4.99806 -17.72178 38.708 18.748)"><stop stop-color="#FF005F"/><stop offset="1" stop-color="#FC01D8"/></radialGradient><radialGradient id="c" cx="0" cy="0" r="1" gradientUnits="userSpaceOnUse" gradientTransform="matrix(0 -31.9288 33.8757 0 10.625 43.08)"><stop stop-color="#FC0"/><stop offset=".124" stop-color="#FC0"/><stop offset=".567" stop-color="#FE4A05"/><stop offset=".694" stop-color="#FF0F3F"/><stop offset="1" stop-color="#FE0657" stop-opacity="0"/></radialGradient><radialGradient id="d" cx="0" cy="0" r="1" gradientUnits="userSpaceOnUse" gradientTransform="rotate(-59.87 44.747 1.474) scale(13.2028 17.1886)"><stop stop-color="#FC0"/><stop offset="1" stop-color="#FC0" stop-opacity="0"/></radialGradient><radialGradient id="e" cx="0" cy="0" r="1" gradientUnits="userSpaceOnUse" gradientTransform="matrix(-24.32816 6.85025 -2.33388 -8.2886 5.427 1.629)"><stop stop-color="#780CFF"/><stop offset="1" stop-color="#820BFF" stop-opacity="0"/></radialGradient><clipPath id="a"><path fill="#fff" d="M0 0h40v40H0z"/></clipPath></defs></svg>