<svg width="621.775" height="622.283" xmlns="http://www.w3.org/2000/svg"><path style="fill:#0b3351;fill-opacity:1" d="m1027.982 685.438-11.5-1.354-9-1.633-9-1.632-13-3.342-13-3.342-13.5-4.685-13.5-4.686-16-7.697-16-7.697-12-7.295-12-7.296-13-9.773-13-9.774-9-8.202-9-8.202-6.798-7.16-6.798-7.161-7.702-9.12-7.702-9.12-5.67-7.88-5.668-7.88-6.6-10.5-6.6-10.5-5.872-11.5-5.872-11.5-4.242-10-4.243-10-4.364-13.25-4.365-13.248-2.408-10.251-2.409-10.251-1.516-8.5-1.517-8.5-1.327-9-1.327-9 .064-29 .065-29 2.103-13.513 2.103-13.512 2.683-11.988 2.683-11.987 3.806-12 3.806-12 4.01-10 4.011-10 3.67-8 3.669-8 5.59-10 5.591-10 7.288-11.022 7.289-11.022 8.784-10.975 8.785-10.975 10.437-10.812 10.438-10.812 9.562-8.263 9.563-8.264 8.175-6.166 8.175-6.165 10.825-7.079 10.825-7.079 19-9.381 19-9.381 12.736-4.553 12.736-4.552 10.764-2.907 10.764-2.907 10-2.049 10-2.049 12-1.596 12-1.596 18-.59 18-.59 15 1.208 15 1.208 11.5 1.923 11.5 1.923 9 2.11 9 2.112 11.5 3.498 11.5 3.499 12.355 4.923 12.356 4.922 12.644 6.36 12.645 6.359 8.5 5.224 8.5 5.224 9.378 6.534 9.378 6.534 9.122 7.536 9.122 7.536 9.853 9.576 9.853 9.576 8.924 10.298 8.924 10.298 6.755 9.202 6.754 9.202 5.052 8 5.053 8 5.03 9 5.032 9 3.754 8 3.754 8 4.514 11.5 4.514 11.5 3.762 12.5 3.762 12.5 2.046 9.5 2.046 9.5 1.51 9.5 1.51 9.5 1.186 13.5 1.187 13.5-.607 21-.607 21-1.5 10.5-1.502 10.5-1.475 7.5-1.476 7.5-1.59 6.81-1.59 6.809-3.532 11.656-3.534 11.656-4.988 12.48-4.988 12.482-5.138 10.054-5.137 10.053-4.97 8.5-4.972 8.5-6.01 9-6.01 9-7.156 9-7.157 9-8.6 9.317-8.601 9.318-9.181 8.461-9.182 8.461-7.136 5.768-7.136 5.768-7 5.011-7 5.012-9.95 6.22-9.95 6.22-12.67 6.442-12.67 6.442-8.88 3.626-8.88 3.626-9.651 3.364-9.65 3.364-11.35 3.017-11.35 3.017-10 1.955-10 1.955-13.5 1.567-13.5 1.567-22.5-.106-22.5-.106z" transform="translate(-752.482 -64.722)"/><path style="fill:#f9f9f9" d="M1163.982 376.507v-117.5h-74v235h74zm-128 0v-117.5h-74v235h74z" transform="translate(-752.482 -64.722)"/></svg>