<svg width="350" height="450" fill="none" xmlns="http://www.w3.org/2000/svg"><path fill-rule="evenodd" clip-rule="evenodd" d="M142.905 202.002c-3.6 5.588-2.653 35.51.662 41.949 4.074 7.954 18.948 16.571 28.042 16.95 11.557.473 21.977-7.954 27.472-17.708 4.453-7.858 5.59-33.709 2.273-41.285-6.252-1.989-52.482-1.989-58.449.094Zm58.26-11.741c2.842-6.25 2.652-38.824-.379-45.358-13.168-28.029-49.451-20.832-57.598.853-2.178 6.06-2.367 39.013.096 44.505 5.683 2.462 52.197 2.462 57.881 0Zm10.516 44.221c-4.264 32.669-49.262 45.074-68.114 21.306-12.219-15.435-9.946-29.639-9.946-48.104 0-15.151-1.611-41.759.852-55.584 5.59-31.911 44.619-46.494 66.977-21.306 12.694 14.204 10.325 29.639 10.325 47.346 0 15.057 1.611 42.8-.094 56.342Z" fill="#0B3351" fill-opacity=".03"/><path fill-rule="evenodd" clip-rule="evenodd" d="M225.513 227.949c9.663 4.828-1.895 29.069-6.537 35.225-13.263 17.423-21.505 15.718-28.988 22.063-16.106 13.542 6.442 23.389 10.989 29.922 13.356 19.697-16.579 15.908-26.716 15.908-10.041 0-42.439 4.736-32.019-14.393 3.979-7.196 27.662-15.244 13.831-30.396-5.967-6.439-19.325-7.386-29.462-21.494-4.547-6.345-14.872-29.545-7.389-35.226 7.01 2.462 5.873 48.483 53.713 48.104 47.082-.285 45.662-46.21 52.578-49.713Zm-32.115 93.839c-2.841-9.091-12.221-6.629-20.463-6.629-7.389 0-19.704-2.272-21.409 6.345 4.926 3.409 36.093 3.124 41.872.284Zm-29.178-33.237c-1.895 5.492 4.547 17.897 6.442 20.359l1.326.095 1.516.094c2.747-3.313 8.052-15.814 6.537-20.738-.475-1.23-15.063-2.083-15.821.19Zm-5.401-65.053c6.063 1.421 20.272 1.421 26.715-.284l-1.136-6.534c-5.78-2.178-20.558-2.841-26.148.758l.569 6.06Z" fill="#0B3351" fill-opacity=".03"/><path fill-rule="evenodd" clip-rule="evenodd" d="M160.052 235.239c3.6 5.398 17.336 3.883 22.831 2.179.095-7.007-3.694-5.303-10.421-5.303-6.158 0-9.189-1.515-12.41 3.124Zm-40.451-38.823c-10.61-7.196-5.305-40.15 6.631-39.771 5.022 11.173-2.746 8.522-4.641 19.412-1.8 10.416 6.063 13.257-1.99 20.359Zm-14.588-41.097c-12.032 5.588-14.874 42.612-3.032 44.885 7.579-11.173-.664-9.943.094-22.159.758-11.836 9.094-13.257 2.938-22.726Zm-24.348 56.627c-10.516-13.163-5.305-73.766 6.725-73.103 4.928 20.549-2.841 15.814-4.64 35.699-1.895 19.223 5.967 24.43-2.085 37.404Zm140.205-24.147c10.327-.094 9.474-23.673-1.42-28.692-5.779 5.113 1.516 6.818 1.989 14.582.379 7.577-7.01 5.966-.569 14.11Z" fill="#0B3351" fill-opacity=".03"/><path fill-rule="evenodd" clip-rule="evenodd" d="M236.785 202.002c10.61-10.794 5.305-60.508-6.631-60.034-5.021 16.95 2.747 12.973 4.641 29.259 1.801 15.814-6.062 20.17 1.99 30.775Zm12.22-53.69c12.126 5.682 15.252 43.558 3.506 45.83-7.674-11.362.568-10.226-.379-22.63-.853-12.122-9.284-13.541-3.127-23.2Z" fill="#0B3351" fill-opacity=".03"/><path fill-rule="evenodd" clip-rule="evenodd" d="M264.068 136.949c12.125 9.375 15.346 72.156 3.599 75.943-7.672-18.844.569-16.854-.379-37.592-.851-19.981-9.283-22.348-3.22-38.351Zm-110.458 6.439c2.748-11.931 31.831-12.783 35.241-.663-7.863 7.008-8.053-1.231-17.62-1.136-9.285.189-9.285 8.522-17.621 1.799Z" fill="#0B3351" fill-opacity=".03"/></svg>