<?xml version="1.0" encoding="UTF-8"?>
<!DOCTYPE svg PUBLIC "-//W3C//DTD SVG 1.1//EN" "http://www.w3.org/Graphics/SVG/1.1/DTD/svg11.dtd">
<!-- Creator: CorelDRAW X8 -->
<svg xmlns="http://www.w3.org/2000/svg" xml:space="preserve" width="1562px" height="938px" version="1.1" style="shape-rendering:geometricPrecision; text-rendering:geometricPrecision; image-rendering:optimizeQuality; fill-rule:evenodd; clip-rule:evenodd"
viewBox="0 0 1781 1068"
 xmlns:xlink="http://www.w3.org/1999/xlink">
 <defs>
  <style type="text/css">
   <![CDATA[
    .str0 {stroke:black;stroke-width:1.02574}
    .fil0 {fill:none}
    .fil1 {fill:#FEFEFE}
    .fil2 {fill:#0B3351;fill-opacity:0.031373}
   ]]>
  </style>
   <clipPath id="id0">
    <path d="M0 0l1781 0 0 1068 -1781 0 0 -1068z"/>
   </clipPath>
   <clipPath id="id1">
    <path d="M0 0l1781 0 0 1068 -1781 0 0 -1068z"/>
   </clipPath>
 </defs>
 <g id="Layer_x0020_1">
  <metadata id="CorelCorpID_0Corel-Layer"/>
  <g>
  </g>
  <g style="clip-path:url(#id0)">
  </g>
  <polygon class="fil0" points="0,0 1781,0 1781,1068 0,1068 "/>
  <g style="clip-path:url(#id1)">
   <path id="1" class="fil0 str0" d="M0 0l1781 1068m0 -1068l-1781 1068"/>
  </g>
  <polygon class="fil1" points="1781,0 0,0 0,1068 1781,1068 "/>
  <path class="fil2" d="M810 477c-9,14 -6,89 2,105 10,20 47,42 70,43 29,1 55,-20 69,-45 11,-19 14,-84 5,-103 -15,-5 -131,-5 -146,0zm146 -29c7,-16 6,-97 -1,-114 -33,-70 -124,-52 -144,3 -6,15 -6,97 0,111 14,6 131,6 145,0zm26 110c-11,82 -123,113 -170,54 -31,-39 -25,-74 -25,-121 0,-37 -4,-104 2,-139 14,-79 112,-116 168,-53 31,36 25,74 25,119 0,37 4,107 0,140l0 0z"/>
  <path class="fil2" d="M1017 542c24,12 -5,73 -17,88 -33,44 -53,40 -72,55 -40,34 16,59 27,75 34,50 -41,40 -66,40 -26,0 -107,12 -81,-36 10,-18 70,-38 35,-76 -15,-16 -48,-18 -74,-54 -11,-16 -37,-74 -18,-88 17,6 15,121 134,120 118,0 114,-115 132,-124zm-81 235c-7,-23 -30,-17 -51,-17 -18,0 -49,-5 -53,16 12,9 90,8 104,1l0 0zm-73 -83c-4,13 12,44 17,51l3 0 4 0c7,-8 20,-39 16,-52 -1,-3 -38,-5 -40,1l0 0zm-13 -163c15,4 51,4 67,-1l-3 -16c-15,-6 -52,-7 -65,2l1 15 0 0z"/>
  <path class="fil2" d="M853 560c9,14 43,10 57,6 0,-18 -9,-13 -26,-13 -15,0 -23,-4 -31,7zm-101 -97c-27,-18 -13,-100 16,-99 13,28 -6,21 -11,48 -5,26 15,33 -5,51zm-37 -103c-30,14 -37,107 -7,113 19,-28 -2,-25 0,-56 2,-29 23,-33 7,-57l0 0zm-60 142c-27,-33 -14,-184 16,-183 13,52 -7,40 -11,90 -5,48 15,61 -5,93zm350 -60c26,-1 24,-60 -3,-72 -15,13 3,17 5,36 0,19 -18,15 -2,36z"/>
  <path class="fil2" d="M1045 477c26,-27 13,-151 -17,-150 -12,42 7,33 12,73 4,40 -15,51 5,77l0 0zm30 -134c31,14 39,109 9,115 -19,-29 2,-26 -1,-57 -2,-30 -23,-34 -8,-58l0 0z"/>
  <path class="fil2" d="M1113 315c30,23 38,180 9,189 -19,-47 2,-42 -1,-94 -2,-50 -23,-55 -8,-95zm-276 16c7,-30 79,-32 88,-2 -20,17 -20,-3 -44,-3 -23,1 -23,21 -44,5z"/>
 </g>
</svg>
