<svg width="500" height="300" fill="none" xmlns="http://www.w3.org/2000/svg"><g clip-path="url(#a)"><path d="M500 0H0v300h500V0Z" fill="#EFF7FA"/><path fill-rule="evenodd" clip-rule="evenodd" d="M227.469 133.994c-2.527 3.924-1.862 24.938.465 29.46 2.86 5.586 13.301 11.638 19.685 11.904 8.113.332 15.428-5.586 19.285-12.436 3.126-5.519 3.924-23.674 1.596-28.994-4.389-1.397-36.842-1.397-41.031.066Zm40.898-8.246c1.995-4.389 1.862-27.266-.266-31.854-9.244-19.684-34.714-14.63-40.433.598-1.529 4.257-1.662 27.399.067 31.256 3.99 1.729 36.642 1.729 40.632 0Zm7.382 31.056c-2.993 22.943-34.581 31.655-47.815 14.963-8.578-10.84-6.982-20.815-6.982-33.783 0-10.64-1.131-29.327.598-39.036 3.924-22.41 31.322-32.652 47.017-14.963 8.911 9.975 7.248 20.815 7.248 33.251 0 10.574 1.131 30.058-.066 39.568Z" fill="#0B3351" fill-opacity=".03"/><path fill-rule="evenodd" clip-rule="evenodd" d="M285.459 152.216c6.783 3.391-1.33 20.415-4.589 24.738-9.31 12.236-15.096 11.039-20.349 15.495-11.306 9.51 4.522 16.426 7.714 21.014 9.376 13.833-11.638 11.172-18.754 11.172-7.049 0-29.792 3.326-22.477-10.108 2.793-5.054 19.418-10.706 9.709-21.347-4.189-4.522-13.566-5.187-20.682-15.095-3.192-4.456-10.44-20.749-5.187-24.739 4.921 1.729 4.123 34.049 37.706 33.783 33.051-.2 32.054-32.453 36.909-34.913Zm-22.544 65.902c-1.995-6.384-8.579-4.655-14.365-4.655-5.187 0-13.832-1.596-15.029 4.456 3.458 2.394 25.337 2.194 29.394.199Zm-20.483-23.342c-1.33 3.857 3.192 12.569 4.522 14.298l.931.067 1.064.066c1.929-2.327 5.653-11.106 4.589-14.564-.333-.864-10.574-1.463-11.106.133Zm-3.791-45.686c4.256.998 14.231.998 18.754-.199l-.798-4.589c-4.057-1.53-14.431-1.995-18.355.532l.399 4.256Z" fill="#0B3351" fill-opacity=".03"/><path fill-rule="evenodd" clip-rule="evenodd" d="M239.506 157.336c2.527 3.791 12.17 2.727 16.027 1.53.067-4.921-2.593-3.724-7.315-3.724-4.323 0-6.451-1.064-8.712 2.194Zm-28.396-27.265c-7.448-5.054-3.724-28.197 4.655-27.931 3.525 7.847-1.928 5.985-3.258 13.633-1.264 7.315 4.256 9.31-1.397 14.298Zm-10.241-28.862c-8.446 3.924-10.441 29.926-2.128 31.522 5.32-7.847-.466-6.983.066-15.562.532-8.312 6.384-9.31 2.062-15.96Zm-17.091 39.768c-7.382-9.244-3.724-51.805 4.721-51.34 3.459 14.432-1.995 11.107-3.258 25.072-1.33 13.5 4.189 17.157-1.463 26.268Zm98.422-16.958c7.249-.066 6.65-16.625-.997-20.15-4.057 3.591 1.064 4.788 1.396 10.241.266 5.321-4.921 4.19-.399 9.909Z" fill="#0B3351" fill-opacity=".03"/><path fill-rule="evenodd" clip-rule="evenodd" d="M293.372 133.994c7.448-7.581 3.724-42.494-4.655-42.162-3.525 11.904 1.928 9.111 3.258 20.549 1.264 11.106-4.256 14.165 1.397 21.613Zm8.578-37.706c8.512 3.99 10.707 30.59 2.461 32.186-5.387-7.98.399-7.182-.266-15.893-.599-8.513-6.517-9.51-2.195-16.293Z" fill="#0B3351" fill-opacity=".03"/><path fill-rule="evenodd" clip-rule="evenodd" d="M312.524 88.308c8.512 6.583 10.773 50.674 2.527 53.334-5.386-13.234.399-11.837-.266-26.401-.598-14.032-6.517-15.695-2.261-26.933Zm-77.54 4.522c1.929-8.38 22.345-8.978 24.739-.466-5.52 4.921-5.653-.864-12.369-.798-6.518.133-6.518 5.986-12.37 1.264Z" fill="#0B3351" fill-opacity=".03"/></g><defs><clipPath id="a"><path fill="#fff" d="M0 0h500v300H0z"/></clipPath></defs></svg>