<svg width="622.001" height="622" xmlns="http://www.w3.org/2000/svg"><path style="fill:#0b3351;fill-opacity:1" d="m349.982 686.316-3.5-.37-13.869-1.975-13.868-1.975-14.132-3.421-14.131-3.422-11.5-3.932-11.5-3.933-8.79-3.652-8.79-3.652-10.9-5.467-10.9-5.466-10.31-6.124-10.31-6.124-8.5-6.09-8.5-6.091-7.5-6.02-7.5-6.02-9-8.226-9-8.227-9.73-10.81-9.728-10.812-8.336-11-8.336-11-7.237-11.5-7.237-11.5-6.32-12.5-6.319-12.5-5.029-12.5-5.028-12.5-3.04-10-3.04-10-2.132-8.448-2.132-8.447-1.93-10.502-1.929-10.502-1.498-14.272-1.5-14.272.021-16.279.02-16.278 1.433-14.5 1.433-14.5 1.583-9 1.584-9 3.028-12.361 3.029-12.362 3.809-11.138 3.808-11.139 3.751-9.3 3.751-9.299 6.928-13.607 6.927-13.608 9.269-14.093 9.268-14.093 8.314-10.5 8.313-10.5 15.116-15.082 15.116-15.082 10.372-8.224 10.372-8.224 8.629-5.803 8.629-5.802 6.999-4.288 6.999-4.289 13.5-6.783 13.5-6.783 10-3.95 10-3.95 11-3.526 11-3.526 10.5-2.528 10.5-2.528 12.5-2.049 12.5-2.048 12.895-1.018 12.895-1.017 13.605.02 13.605.02 14.254 1.45 14.255 1.45 9.245 1.596 9.246 1.595 10 2.375 10 2.374 9.649 2.991 9.649 2.991 10.85 4.205 10.852 4.205 11 5.256 11 5.256 8.5 4.925 8.5 4.924 10.392 6.838 10.392 6.837 9.608 7.687 9.608 7.686 8.5 7.935 8.5 7.935 8.5 8.986 8.5 8.985 6.803 8.49 6.803 8.488 6.792 10 6.793 10 5.196 8.851 5.196 8.852 4.955 9.873 4.955 9.874 5.044 12.645 5.045 12.645 3.945 13.13 3.945 13.13 2.095 10 2.095 10 .932 5.5.932 5.5 1.477 13 1.477 13 .01 19.144.01 19.144-1.008 10.356-1.008 10.356-1.581 10-1.582 10-2.829 12.016-2.828 12.016-3.687 11.484-3.687 11.484-4.323 10.623-4.324 10.623-6.182 12.377-6.183 12.377-7.03 11.368-7.03 11.369-7.237 9.724-7.237 9.724-9.149 10.597-9.149 10.598-9.723 9.162-9.723 9.162-11.5 9.26-11.5 9.259-11.5 7.548-11.5 7.548-11.5 6.206-11.5 6.206-8.846 3.907-8.846 3.907-8.654 3.342-8.654 3.34-8.831 2.694-8.832 2.693-9.668 2.384-9.669 2.385-12 2.007-12 2.008-9.71 1.05-9.711 1.052-22.79-.16-22.79-.16z" transform="translate(-66.982 -65.007)"/><path style="fill:#f9f9f9" d="m331.234 497.814 33.248-21.193 10.23-6.557 10.232-6.557 40.269-25.69 40.269-25.689 27.495-17.545 27.495-17.546.214-.765.214-.765-8.21-5.101-8.208-5.101-14.5-9.283-14.5-9.284-17.5-11.194-17.5-11.195-24-15.305-24-15.305-15-9.535-15-9.535-8-5.173-8-5.174-10-6.342-10-6.343-13.5-8.655-13.5-8.655-1.25-.72-1.25-.718v286.118h1.005z" transform="translate(-66.982 -65.007)"/></svg>