<?xml version="1.0" encoding="UTF-8"?>
<!DOCTYPE svg PUBLIC "-//W3C//DTD SVG 1.1//EN" "http://www.w3.org/Graphics/SVG/1.1/DTD/svg11.dtd">
<!-- Creator: CorelDRAW X8 -->
<svg xmlns="http://www.w3.org/2000/svg" xml:space="preserve" width="985px" height="985px" version="1.1" style="shape-rendering:geometricPrecision; text-rendering:geometricPrecision; image-rendering:optimizeQuality; fill-rule:evenodd; clip-rule:evenodd"
viewBox="0 0 158 158"
 xmlns:xlink="http://www.w3.org/1999/xlink">
 <defs>
  <style type="text/css">
   <![CDATA[
    .fil0 {fill:#0B3351}
    .fil1 {fill:#0B3351;fill-rule:nonzero}
   ]]>
  </style>
 </defs>
 <g id="Layer_x0020_1">
  <metadata id="CorelCorpID_0Corel-Layer"/>
  <path class="fil0" d="M81 153c0,-2 2,-3 4,-3l12 -3c3,0 5,-1 8,-2l4 -2c3,-1 6,-3 9,-5 3,-2 5,-4 8,-6 8,-7 16,-19 19,-29 4,-10 5,-19 4,-31 0,-2 0,-4 0,-6 -1,-2 -1,-4 -2,-6 -1,-5 -3,-10 -6,-15 0,0 0,0 0,-1 -1,-1 -2,-3 -3,-4 -12,-18 -30,-29 -51,-31 -17,-2 -33,2 -46,10 -1,1 -2,1 -3,2l-10 8c-2,3 -6,8 -8,11 -4,6 -5,8 -8,16 -1,3 -3,10 -3,13 0,0 1,0 1,-1l10 -8c2,-1 5,-1 6,1 2,2 1,4 -1,6l-19 15c-2,1 -6,-1 -6,-4 0,-16 6,-33 15,-45 1,-2 3,-5 5,-7l1 -1c1,-1 6,-5 7,-7 1,0 1,0 1,0l5 -4c0,0 0,0 1,-1l7 -4c3,-1 5,-2 8,-4 10,-4 22,-5 33,-5 5,0 11,1 16,3 5,1 9,2 14,5 8,4 14,8 20,13 4,4 11,12 13,17 2,3 3,5 5,8 2,5 3,10 5,15 0,1 0,2 0,3 1,3 1,5 1,8 1,1 1,2 1,3 0,9 -1,17 -3,25l-1 5c-3,6 -6,13 -10,18 0,1 -1,2 -1,3 -3,3 -7,8 -10,10 -2,2 -4,4 -6,6 -3,2 -6,4 -9,6l-3 1c-1,1 -3,2 -5,2l-5 2c-2,1 -5,2 -7,3l-3 0c-2,1 -4,1 -6,1 -3,1 -6,2 -8,-1 0,-1 -1,-2 0,-3z"/>
  <g id="_2597040408512">
   <path class="fil1" d="M97 107c-6,0 -11,-2 -15,-8 -4,-5 -5,-12 -5,-20 0,-8 1,-15 5,-21 4,-5 9,-8 15,-8 7,0 12,3 16,8 3,6 5,13 5,21 0,8 -2,15 -5,20 -4,6 -9,8 -16,8zm0 -10c3,0 5,-2 7,-5 2,-4 3,-8 3,-13 0,-5 -1,-9 -3,-13 -2,-3 -4,-5 -7,-5 -2,0 -4,2 -6,5 -2,4 -3,8 -3,13 0,5 1,9 3,13 2,3 4,5 6,5z"/>
   <path class="fil0" d="M53 51c1,-1 1,-1 1,-1l10 0c1,0 1,1 1,1l0 55c0,1 0,1 -1,1l-9 0c-1,0 -1,0 -1,-1l0 -38c0,-1 -1,-1 -2,-1l-5 5c0,1 -1,1 -1,0l-7 -6c0,0 0,-1 0,-1l14 -14z"/>
  </g>
 </g>
</svg>
