<svg width="40" height="40" fill="none" xmlns="http://www.w3.org/2000/svg"><g clip-path="url(#a)"><rect width="40" height="40" rx="20" fill="#000"/><path fill-rule="evenodd" clip-rule="evenodd" d="M18.406.074c-.945.098-1.364.159-2.438.35-.387.07-1.559.378-2.107.555a20.503 20.503 0 0 0-1.701.641C8.297 3.2 4.764 6.36 2.574 10.194c-.246.43-.879 1.723-1.03 2.106-.05.126-.13.32-.179.432-.305.704-.845 2.587-1.011 3.527a54.48 54.48 0 0 1-.103.558c-.05.26-.127.932-.202 1.747-.065.712-.065 2.327 0 2.963.104 1.015.163 1.472.261 2.015.093.516.347 1.623.454 1.98.147.488.57 1.733.604 1.776a.686.686 0 0 1 .077.178c.036.12.073.209.33.786 2.3 5.162 7.457 9.651 12.568 10.94.084.022.427.111.762.2 3.005.79 6.88.798 9.762.022l.559-.15c4.357-1.16 8.604-4.228 11.168-8.068.66-.989 1.793-3.066 1.793-3.287a.2.2 0 0 1 .044-.116c.096-.108.67-1.719.843-2.37l.15-.56c.774-2.854.767-6.702-.017-9.73l-.183-.711c-1.034-4.044-4.233-8.45-7.946-10.945-.433-.291-1.215-.78-1.249-.78-.012 0-.11-.054-.217-.122-.21-.133-1.16-.616-1.53-.779a56.294 56.294 0 0 0-.558-.24 66.45 66.45 0 0 1-.496-.212 26.69 26.69 0 0 0-1.56-.526c-2.662-.708-5.192-.97-7.262-.754Zm1.37 10.605c1.05.075 2.65.244 3.301.348l.676.103c3.241.477 6.84 1.657 9.531 3.124 1.243.678 1.66 1.544 1.247 2.587-.373.943-1.65 1.441-2.516.983-.738-.39-2.163-1.101-2.362-1.18a9.828 9.828 0 0 1-.38-.155c-.787-.34-2.485-.885-3.555-1.14l-.533-.13c-.316-.079-1.353-.275-2.26-.429-4.411-.747-9.996-.54-13.837.514-.64.175-.79.2-1.143.182-1.806-.088-2.413-2.42-.888-3.419.748-.49 4.336-1.171 7.286-1.383.903-.065 4.556-.068 5.434-.005Zm-1.497 6.847c2.694.14 5.3.623 7.775 1.44 2.805.927 5.31 2.23 5.646 2.937.718 1.517-.98 2.874-2.402 1.918-.434-.293-1.871-1.004-2.666-1.32-3.154-1.257-6.502-1.879-10.097-1.877-2.354.002-4.41.28-6.787.916-.642.172-.86.172-1.248 0-1.34-.592-1.25-2.441.142-2.914 2.452-.831 6.316-1.273 9.637-1.1Zm.62 6.55c.287.027.762.074 1.055.104 2.258.225 4.833.95 6.932 1.952.71.339 1.89.997 2.044 1.14.935.87.185 2.398-1.063 2.164-.093-.017-.444-.187-.779-.376-2.592-1.465-5.06-2.203-8.276-2.474-1.351-.114-3.982-.063-5.07.098l-.567.081c-.715.1-1.715.262-2.082.336l-.862.178c-1.166.245-1.826-.17-1.828-1.148-.001-.761.331-1.074 1.396-1.311 2.86-.64 6.842-.965 9.1-.745Z" fill="#1DDA63"/></g><defs><clipPath id="a"><rect width="40" height="40" rx="20" fill="#fff"/></clipPath></defs></svg>