<svg width="622.286" height="621.314" xmlns="http://www.w3.org/2000/svg"><path style="fill:#0b3351;fill-opacity:1" d="m1712.482 685.457-12-1.429-8.5-1.57-8.5-1.57-11.707-2.912-11.706-2.912-10.794-3.644-10.793-3.643-8.5-3.507-8.5-3.508-12-6.01-12-6.009-10-5.99-10-5.988-8.5-6.078-8.5-6.077-10-8.003-10-8.002-12.5-12.55-12.5-12.548-9.62-12-9.62-12-5.436-8-5.437-8-5.084-8.5-5.083-8.5-5.557-11.126-5.556-11.127-4.048-9.725-4.047-9.726-4.42-13.723-4.418-13.723-3.034-13.925-3.033-13.925-1.046-7-1.046-7-1.007-10.356-1.008-10.356v-38.884l1.567-13.702 1.567-13.702 2.496-12.5 2.496-12.5 3.384-12 3.385-12 2.993-8.24 2.993-8.24 4.156-9.726 4.155-9.726 3.298-6.534 3.297-6.534 4.934-8.5 4.934-8.5 4.819-7.5 4.818-7.5 9.083-12 9.083-12 17.02-17.056 17.022-17.056 8.5-6.777 8.5-6.777 14-9.327 14-9.328 8.5-4.675 8.5-4.675 11.546-5.296 11.545-5.296 9.455-3.54 9.454-3.54 11.5-3.484 11.5-3.484 12.791-2.59 12.791-2.589 12.209-1.723 12.209-1.723 26.5.017 26.5.017 12.5 1.742 12.5 1.742 14 3.058 14 3.06 11.236 3.399 11.236 3.4 12.264 4.862 12.264 4.862 11.26 5.652 11.26 5.652 10.74 6.379 10.74 6.378 8 5.717 8 5.718 9.475 7.64 9.475 7.641 10.88 10.482 10.88 10.482 9.27 11.018 9.272 11.018 7.228 10 7.228 10 6.386 10.747 6.387 10.746 5.883 11.754 5.884 11.753 4.525 11.5 4.526 11.5 3.628 11.5 3.627 11.5 2.951 14.19 2.951 14.19 1.556 11.31 1.556 11.31.609 20.007.609 20.007-1.19 13.493-1.19 13.493-1.973 12-1.972 12-3.066 12.414-3.067 12.414-4.92 14.245-4.921 14.244-4.89 11.064-4.892 11.063-6.252 11.278-6.252 11.278-4.465 7-4.466 7-6.597 9-6.598 9-7.67 9-7.67 9-13.368 13.009-13.367 13.009-8.5 6.794-8.5 6.794-10 6.796-10 6.796-9.834 5.758-9.833 5.759-13.167 6.303-13.166 6.303-12.715 4.583-12.715 4.582-10.378 2.914-10.378 2.914-9.907 2.033-9.907 2.033-10.5 1.675-10.5 1.675-28 .324-28 .324z" transform="translate(-1436.982 -65.571)"/><path style="fill:#f9f9f9" d="M1864.982 376.507v-117.5h-235v235h235z" transform="translate(-1436.982 -65.571)"/></svg>