<svg width="341.333" height="341.333" xmlns="http://www.w3.org/2000/svg"><path style="fill:#0b3351;fill-opacity:1;stroke:none" d="M178.057 12.555c-9.932.299-16.096 7.197-22.666 13.765l-30.667 30.667c-14.304 14.304-37.955 29.512-46.685 48-4.172 8.834-2.648 19.849-2.648 29.333v56c0 9.49-1.604 20.604 2.932 29.333 8.514 16.384 29.376 30.975 42.401 44l34.667 34.667c7.12 7.107 14.429 14.68 25.333 13.68 25.274-2.322 17.334-47.198 17.334-64.347V66.32c0-17.047 6.661-54.568-20-53.765m72.086 62.691c-5.13 1.63-5.433 7.083-2.29 10.704 7.665 8.83 19.083 13.604 26.728 23.037 23.54 29.04 26.013 70.462 4.253 101.333-8.34 11.833-19.77 17.754-29.82 27.401-4.695 4.506-1.967 12.534 5.042 11.636 11.205-1.435 23.485-15.044 30.315-23.037 26.381-30.87 30.714-78.231 10.21-113.333-7.472-12.793-17.538-24.058-29.858-32.37-3.799-2.564-9.696-6.923-14.58-5.371M64.724 223.653c-.894-41.495-.682-81.492 0-122.666-12.987 0-34.835-4.3-44.901 5.765-7.015 7.015-5.766 17.207-5.766 26.235v60c0 9.34-.837 19.158 7.038 25.913 10.262 8.804 31.018 4.753 43.63 4.753m157.363-105.648c-5.213 1.49-6.648 7.911-2.407 11.315 4.756 3.817 10.963 4.748 15.63 9.185 13.024 12.385 14.163 31.524 2.376 45.124-5.002 5.77-15.92 7.39-19.537 13.623-2.893 4.986 1.41 9.76 6.574 9.617 32.696-.904 41.978-47.543 27.525-69.882-5.164-7.982-19.063-22.153-30.16-18.982z"/></svg>