<svg width="40" height="30" fill="none" xmlns="http://www.w3.org/2000/svg"><g clip-path="url(#a)"><path d="M36.587 5.363c-.43-1.723-1.695-3.078-3.304-3.54C30.37.988 18.684.988 18.684.988s-11.686 0-14.599.837C2.476 2.285 1.212 3.64.781 5.364 0 8.483 0 15 0 15s0 6.515.781 9.637c.431 1.723 1.695 3.078 3.304 3.539 2.913.837 14.6.837 14.6.837s11.685 0 14.598-.837c1.61-.461 2.873-1.816 3.304-3.54.781-3.12.781-9.636.781-9.636s-.003-6.516-.781-9.637Z" fill="red"/><path d="m14.944 21.005 9.708-6.004-9.708-6.005v12.01Z" fill="#fff"/></g><defs><clipPath id="a"><path fill="#fff" transform="translate(0 .987)" d="M0 0h40v28.026H0z"/></clipPath></defs></svg>